<ttFont>
<head>
    <!-- Most of this table will be recalculated by the compiler -->
    <tableVersion value="1.0"/>
    <fontRevision value="2.112"/>
    <checkSumAdjustment value="0xbcff91fe"/>
    <magicNumber value="0x5f0f3cf5"/>
    <flags value="00000000 00000011"/>
    <unitsPerEm value="1000"/>
    <created value="Wed Oct 10 19:24:10 2012"/>
    <modified value="Wed Oct 10 19:24:10 2012"/>
    <xMin value="-290"/>
    <yMin value="-360"/>
    <xMax value="1684"/>
    <yMax value="989"/>
    <macStyle value="00000000 00000000"/>
    <lowestRecPPEM value="3"/>
    <fontDirectionHint value="2"/>
    <indexToLocFormat value="0"/>
    <glyphDataFormat value="0"/>
  </head>
          <CharString index="0">
            719 146 rmoveto
            -28 1 rlineto
            -70 -25 -9 -5 -46 hhcurveto
            -84 hlineto
            45 53 116 99 140 vvcurveto
            181 -131 120 -174 -171 -135 -124 -181 -140 111 -96 51 -52 vhcurveto
            -89 hlineto
            -40 -13 8 67 -24 hvcurveto
            -27 -1 17 -146 rlineto
            244 hlineto
            7 18 rlineto
            -31 53 -105 132 156 vvcurveto
            170 78 102 126 127 78 -108 -160 -167 -103 -129 -31 -49 vhcurveto
            4 -18 rlineto
            244 hlineto
            return
          </CharString>
          <CharString index="1">
            433 39 rmoveto
            -10 26 rlineto
            -6 -10 -14 -5 -12 hhcurveto
            -17 -18 15 45 hvcurveto
            186 vlineto
            52 -10 41 -35 29 vhcurveto
            18 -22 -30 9 -30 hhcurveto
            -57 -11 -65 -39 -28 -20 rrcurveto
            -19 -14 -13 -11 -15 vvcurveto
            -23 26 -20 18 14 11 7 16 4 vhcurveto
            8 31 9 22 13 13 rrcurveto
            12 10 15 8 20 hhcurveto
            50 34 -41 -72 hvcurveto
            -18 vlineto
            -22 -18 -73 -27 -60 -20 rrcurveto
            -55 -19 -26 -31 -49 vvcurveto
            -63 49 -59 71 30 48 37 27 40 vhcurveto
            5 -17 6 -14 13 -14 rrcurveto
            -10 11 21 -9 15 hhcurveto
            -73 96 rmoveto
            -19 -18 -35 -17 -26 -1 rrcurveto
            -31 -40 25 52 36 22 19 39 18 hvcurveto
            21 10 48 21 21 11 rrcurveto
            return
          </CharString>
          <CharString index="2">
            516 162 rmoveto
            -13 -40 -19 -34 -17 -20 rrcurveto
            -26 -22 -28 -8 -76 hhcurveto
            -50 -35 1 12 -19 hvcurveto
            -18 13 -6 21 47 vvcurveto
            189 95 vlineto
            87 7 -6 -72 13 hvcurveto
            29 192 -29 hlineto
            -67 -13 -5 -8 -90 hhcurveto
            -94 227 hlineto
            30 2 2 31 vhcurveto
            76 hlineto
            72 27 -7 -21 14 hvcurveto
            13 -22 10 -22 9 -42 29 5 rcurveline
            -3 51 -5 68 25 vvcurveto
            -446 hlineto
            return
          </CharString>
          <CharString index="3">
            559 464 rmoveto
            -195 -27 hlineto
            58 -4 16 -8 4 -35 rrcurveto
            3 -24 2 -30 -69 vvcurveto
            -46 vlineto
            -117 -42 -68 -89 -85 -45 62 115 vhcurveto
            143 vlineto
            70 440 callsubr
            -70 vvcurveto
            -165 vlineto
            -84 23 -52 42 -32 vhcurveto
            -27 35 44 -9 47 hhcurveto
            53 49 19 34 34 hvcurveto
            41 41 14 64 67 vvcurveto
            55 vlineto
            67 2 33 532 callgsubr
            return
          </CharString>
          <CharString index="4">
            276 273 rmoveto
            -22 -18 -74 -26 -60 -20 rrcurveto
            -55 -19 -26 -31 -49 vvcurveto
            -63 49 -59 72 29 49 39 27 39 vhcurveto
            -49 11 42 -17 76 hhcurveto
            74 69 17 41 42 hvcurveto
            28 28 12 29 24 vvcurveto
            26 -13 12 -10 -12 -21 -15 -12 -7 vhcurveto
            -3 -3 -1 -5 2 -6 rrcurveto
            3 -8 5 -13 -13 vvcurveto
            -32 -31 -24 -79 -94 -17 28 61 vhcurveto
            179 vlineto
            52 -9 39 -35 30 vhcurveto
            17 -22 -31 9 -29 hhcurveto
            -57 -12 -64 -37 -29 -20 rrcurveto
            -20 -14 -11 -12 -15 vvcurveto
            -23 25 -20 18 14 11 7 17 5 vhcurveto
            9 30 8 21 13 13 rrcurveto
            12 10 15 10 19 hhcurveto
            52 31 -41 -73 hvcurveto
            -206 vmoveto
            -19 -19 -35 -18 -26 hhcurveto
            -31 -40 24 264 callgsubr
            17 hvcurveto
            21 10 48 22 21 11 rrcurveto
            return
          </CharString>
          <CharString index="5">
            292 477 rmoveto
            -109 -141 -77 -177 -118 91 -118 160 121 127 85 165 136 -102 104 -147 hvcurveto
            -8 -32 rmoveto
            103 60 -114 -113 -145 -69 -55 -75 -98 -69 95 133 132 71 67 77 hvcurveto
            return
          </CharString>
          <CharString index="6">
            53 16 -7 -17 13 hvcurveto
            10 -12 8 -17 9 -31 27 2 rcurveline
            -4 46 -3 49 -1 20 rrcurveto
            -360 -28 hlineto
            64 -4 5 -5 -73 vvcurveto
            -243 vlineto
            -72 -5 -6 -71 -6 vhcurveto
            -27 386 vlineto
            6 20 15 74 5 29 rrcurveto
            return
          </CharString>
          <CharString index="7">
            379 106 rmoveto
            -34 -36 -38 -16 -40 hhcurveto
            -70 -78 56 136 -1 hvcurveto
            119 4 125 10 17 3 rrcurveto
            18 4 5 8 20 vvcurveto
            78 -67 74 -83 -52 -54 -27 -46 -41 vhcurveto
            -41 -45 -25 -61 -69 vvcurveto
            -113 72 -100 123 31 69 18 79 63 vhcurveto
            -169 327 rmoveto
            55 34 -48 -52 -1 hvcurveto
            -14 -6 -6 -18 vhcurveto
            -2 -58 -55 -1 -56 hhcurveto
            81 15 44 42 46 hhcurveto
            return
          </CharString>
          <CharString index="8">
            34 464 rmoveto
            -27 vlineto
            65 -7 5 -4 -70 vvcurveto
            -165 vlineto
            -84 23 -52 42 -32 vhcurveto
            -27 35 44 -9 47 hhcurveto
            53 49 19 34 34 hvcurveto
            41 41 14 64 67 vvcurveto
            55 vlineto
            67 2 33 3 23 vhcurveto
            3 32 13 6 35 12 rrcurveto
            40 12 26 29 43 vvcurveto
            51 -30 20 -28 -26 -19 -18 -23 -19 16 -8 7 -2 vhcurveto
            26 473 callsubr
            -15 -16 -19 -38 vhcurveto
            -144 -27 hlineto
            58 -4 16 -8 4 -35 rrcurveto
            3 -24 2 -30 -69 vvcurveto
            -46 vlineto
            -117 -42 -68 -89 -85 -45 62 115 vhcurveto
            143 vlineto
            70 5 4 63 7 vhcurveto
            27 vlineto
            return
          </CharString>
          <CharString index="9">
            448 420 rmoveto
            39 -21 49 -61 -112 vvcurveto
            -148 -49 -28 -45 -55 -25 54 53 1 vhcurveto
            1 61 10 77 3 56 -8 5 rcurveline
            -83 -19 4 -43 7 -76 1 -61 rlinecurve
            -50 1 -20 -55 -52 hhcurveto
            -50 -53 72 110 78 26 65 55 52 hvcurveto
            return
          </CharString>
          <CharString index="10">
            303 hmoveto
            28 vlineto
            -82 6 -8 5 86 vvcurveto
            400 vlineto
            85 8 6 82 6 vhcurveto
            28 -265 87 callgsubr
            -6 -85 vvcurveto
            -400 vlineto
            -85 -8 -6 -82 502 callsubr
            return
          </CharString>
          <CharString index="11">
            -52 -1 -51 -3 -46 vhcurveto
            28 4 28 4 28 3 rrcurveto
            336 vlineto
            17 18 45 35 43 hhcurveto
            63 24 -50 -69 hvcurveto
            -1 -165 -3 -162 -2 -165 16 -13 40 -19 24 -2 rrcurveto
            return
          </CharString>
          <CharString index="12">
            533 229 rmoveto
            -213 -27 hlineto
            80 -8 5 -6 -48 vvcurveto
            -72 vlineto
            -40 -43 -9 -34 -131 -60 112 109 130 79 75 96 76 55 -32 -87 18 vhcurveto
            28 3 -7 61 -3 42 -3 24 rlinecurve
            6 -25 -57 15 -63 hhcurveto
            -148 -141 -83 -167 -145 114 -95 167 55 66 18 12 48 hvcurveto
            -4 15 -2 24 25 vvcurveto
            61 vlineto
            49 3 3 44 8 vhcurveto
            return
          </CharString>
          <CharString index="13">
            -90 callgsubr
            -18 -20 -29 callsubr
            101 callsubr
            return
          </CharString>
          <CharString index="14">
            559 464 rmoveto
            -194 -27 hlineto
            57 -4 16 -8 4 -33 rrcurveto
            3 -25 2 -33 -69 vvcurveto
            -128 -2 vlineto
            -283 327 rlineto
            -136 552 callgsubr
            16 -15 -83 vvcurveto
            -134 vlineto
            -69 -3 -37 -3 -24 vhcurveto
            -4 -30 -18 -9 -46 -4 rrcurveto
            -27 195 27 vlineto
            -55 4 -19 9 -3 31 rrcurveto
            -4 23 -2 37 69 vvcurveto
            157 vlineto
            1 1 rlineto
            return
          </CharString>
          <CharString index="15">
            -18 24 rlineto
            -97 -61 -51 -77 -113 vvcurveto
            -128 72 -86 80 40 46 39 36 26 vhcurveto
            -35 16 29 -40 60 hhcurveto
            72 126 102 174 hvcurveto
            return
          </CharString>
          <CharString index="16">
            378 107 rmoveto
            -37 -40 -36 -14 -39 hhcurveto
            -70 -1 -77 53 -2 142 rrcurveto
            93 139 -1 86 hhcurveto
            85 60 26 40 33 hvcurveto
            18 21 8 25 23 vvcurveto
            22 -12 23 -13 -18 -24 -26 -12 -1 vhcurveto
            4 -10 8 -16 -16 vvcurveto
            -29 -23 -30 -99 -25 -22 0 1 -22 vhcurveto
            84 1 -58 74 -85 hhcurveto
            -51 -53 -28 -45 -41 hvcurveto
            -43 -46 -23 -67 -62 vvcurveto
            -114 72 -99 122 30 75 19 78 59 vhcurveto
            -172 328 rmoveto
            56 31 -54 -50 -1 hvcurveto
            -13 -5 -5 -16 vhcurveto
            -54 -56 -1 -56 hhcurveto
            81 12 48 42 41 hhcurveto
            return
          </CharString>
          <CharString index="17">
            620 650 rmoveto
            -221 -28 hlineto
            78 -8 3 -8 -23 -50 -28 -61 -54 -98 -37 -66 -43 75 -49 82 -42 80 -19 33 -2 12 71 9 rrcurveto
            28 -239 -28 vlineto
            60 -6 11 -11 40 -68 55 -93 36 -65 35 -62 rrcurveto
            17 -30 4 -9 -20 vvcurveto
            -133 527 callsubr
            -89 -6 vhcurveto
            -28 283 28 vlineto
            -92 6 -8 7 84 vvcurveto
            136 vlineto
            26 3 11 13 26 vhcurveto
            48 88 34 58 45 73 39 61 11 10 69 8 rrcurveto
            return
          </CharString>
          <CharString index="18">
            -82 callsubr
            -24 vvcurveto
            -50 32 -29 return
          </CharString>
          <CharString index="19">
            293 424 rmoveto
            37 -22 42 -58 -102 vvcurveto
            -147 -44 -47 -68 -47 -42 36 69 vhcurveto
            53 0 75 64 vvcurveto
            71 -23 33 -36 -34 -46 -27 -16 -25 vhcurveto
            return
          </CharString>
          <CharString index="20">
            rmoveto
            -5 -13 -14 -3 -14 hhcurveto
            -21 -18 12 56 hvcurveto
            333 vlineto
            -79 -18 rlineto
            -347 vlineto
            -77 41 -20 28 37 return
          </CharString>
          <CharString index="21">
            vstem
            468 140 rmoveto
            -80 -37 -45 -40 -72 hhcurveto
            -96 -81 89 130 120 72 86 101 73 51 -31 -86 20 hvcurveto
            28 5 -5 47 -3 37 -5 40 rlinecurve
            6 -27 -52 14 -63 hhcurveto
            -160 -124 -100 -150 -124 86 -116 182 50 74 15 6 20 hvcurveto
            14 26 19 65 8 35 rrcurveto
            return
          </CharString>
          <CharString index="22">
            rmoveto
            -2 -8 -8 -1 -9 hhcurveto
            -17 -21 -89 callsubr
            return
          </CharString>
          <CharString index="23">
            146 vstem
            956 650 rmoveto
            -221 -28 hlineto
            79 -9 4 -11 -14 -60 -16 -71 -55 -196 -42 -133 rrcurveto
            -2 hlineto
            -61 172 -58 162 -56 164 rrcurveto
            -29 hlineto
            -51 -163 -58 -165 -53 -170 rrcurveto
            -2 hlineto
            -44 142 -39 135 -39 135 -15 51 2 8 73 9 rrcurveto
            28 -243 -28 vlineto
            61 -8 15 -8 25 -82 55 -178 56 -176 53 -180 rrcurveto
            31 hlineto
            51 161 56 161 56 176 rrcurveto
            2 hlineto
            51 -145 69 -193 55 -160 rrcurveto
            31 hlineto
            82 279 60 189 23 64 30 83 9 8 69 9 rrcurveto
            return
          </CharString>
          <CharString index="24">
            719 650 rmoveto
            -236 -28 hlineto
            69 -4 24 -13 5 -45 rrcurveto
            3 -28 4 -46 -92 vvcurveto
            -246 -3 vlineto
            -417 502 rlineto
            -148 -28 hlineto
            47 -4 22 -8 20 -25 rrcurveto
            18 -24 2 -4 -73 vvcurveto
            -220 vlineto
            -92 -3 -48 -3 -31 vhcurveto
            -5 -49 -25 -13 -58 -3 rrcurveto
            -28 237 28 vlineto
            -68 4 -23 12 -5 51 rrcurveto
            -3 29 -3 48 92 vvcurveto
            251 2 vlineto
            return
          </CharString>
          <CharString index="25">
            234 callsubr
            4 67 callgsubr
            -8 -17 -8 -20 return
          </CharString>
          <CharString index="26">
            117 vstem
            696 437 rmoveto
            -181 -25 hlineto
            65 -9 6 -6 -13 -52 -18 -74 -28 -87 -22 -69 rrcurveto
            -2 hlineto
            -42 107 -41 106 -37 104 rrcurveto
            -26 hlineto
            -42 -115 -37 -103 -37 -96 rrcurveto
            -2 hlineto
            -25 77 -25 79 -23 77 -15 45 5 6 60 10 rrcurveto
            25 -207 -25 vlineto
            48 -7 9 -7 18 -52 41 -120 38 -118 36 -119 rrcurveto
            29 hlineto
            39 111 41 100 38 100 41 -105 41 -98 40 -108 rrcurveto
            28 hlineto
            46 136 44 133 30 79 21 55 9 12 50 8 rrcurveto
            return
          </CharString>
          <CharString index="27">
            23 -6 23 -17 27 173 31 202 31 449 callsubr
            153 88 hintmask 10111100
            -71 callsubr
            hintmask 01111100
            -249 vlineto
            -70 -6 -5 -66 -5 vhcurveto
            -27 223 395 callsubr
            6 69 vvcurveto
            93 23 vlineto
            38 11 -7 -30 18 hvcurveto
            hintmask 10111100
            -62 callgsubr
            return
          </CharString>
          <CharString index="28">
            -28 vlineto
            78 -7 8 -3 -90 vvcurveto
            -398 vlineto
            -81 -8 -8 -91 -7 vhcurveto
            return
          </CharString>
          <CharString index="29">
            391 111 rmoveto
            -43 -46 -33 -12 -43 hhcurveto
            -56 -95 46 139 105 58 55 66 35 35 -13 -28 30 hvcurveto
            -8 9 5 -3 5 hhcurveto
            11 22 22 21 11 -3 9 -13 11 hvcurveto
            13 -16 -33 13 -40 hhcurveto
            -39 -60 -16 -40 -52 hvcurveto
            -67 -52 -33 -67 -77 vvcurveto
            -107 74 -102 126 59 67 44 58 44 vhcurveto
            return
          </CharString>
          <CharString index="30">
            372 callsubr
            -59 -8 -10 107 callgsubr
            -100 -19 -42 rrcurveto
            endchar
          </CharString>
          <CharString index="31">
            -60 callsubr
            -24 vvcurveto
            -50 31 71 callsubr
            return
          </CharString>
          <CharString index="32">
            102 vstem
            614 176 rmoveto
            -100 -50 -54 -55 -102 hhcurveto
            -152 -110 128 187 152 89 141 167 108 60 -43 -106 26 hvcurveto
            30 7 -6 54 -6 40 -8 57 rlinecurve
            5 -28 -68 22 -81 hhcurveto
            -223 -162 -139 -210 -159 109 -172 249 72 84 20 7 28 hvcurveto
            18 33 25 74 14 46 rrcurveto
            return
          </CharString>
          <CharString index="33">
            54 6 31 33 43 vvcurveto
            50 -30 20 -28 -26 -19 -18 -22 -20 16 -7 7 -2 vhcurveto
            26 -4 8 -7 -14 vvcurveto
            -16 -16 -11 -29 -17 -14 4 7 -13 vhcurveto
            return
          </CharString>
          <CharString index="34">
            -53 -11 -52 -4 -52 -3 rrcurveto
            -23 vlineto
            72 -10 6 -4 -57 vvcurveto
            -233 vlineto
            -33 -34 -38 -15 -36 hhcurveto
            -45 -43 24 89 hvcurveto
            134 vlineto
            return
          </CharString>
          <CharString index="35">
            592 498 rmoveto
            -5 58 -5 73 46 vvcurveto
            -21 hlineto
            -19 -16 -8 -6 -27 hhcurveto
            -395 hlineto
            -28 -13 2 23 -14 hvcurveto
            -20 hlineto
            -2 -55 -5 -65 -5 -60 rrcurveto
            29 hlineto
            12 44 8 28 12 17 rrcurveto
            23 13 20 8 83 hhcurveto
            62 -492 hlineto
            -79 -8 -10 -91 -6 vhcurveto
            -28 287 28 vlineto
            -95 6 -8 10 79 vvcurveto
            492 71 vlineto
            75 17 -7 -24 16 hvcurveto
            12 -16 9 -25 11 -48 rrcurveto
            return
          </CharString>
          <CharString index="36">
            513 17 rmoveto
            -18 6 -20 9 -17 18 -17 18 -13 16 -25 36 -23 32 -32 52 -11 20 rrcurveto
            48 18 47 37 65 vvcurveto
            45 -22 33 -29 17 vhcurveto
            19 -30 -37 6 -50 hhcurveto
            -221 -27 hlineto
            63 -5 6 -3 -73 vvcurveto
            return
          </CharString>
          <CharString index="37">
            506 73 rmoveto
            -9 -12 -15 -6 -12 hhcurveto
            -25 -26 39 105 hvcurveto
            return
          </CharString>
          <CharString index="38">
            -48 -9 -48 -6 -47 -3 rrcurveto
            -23 vlineto
            57 -11 4 -4 -55 vvcurveto
            -196 vlineto
            -108 57 -41 67 27 21 8 17 29 vhcurveto
            return
          </CharString>
          <CharString index="39">
            359 629 rmoveto
            132 110 -112 -211 -192 -100 -93 -111 -141 -103 137 188 187 102 96 111 hvcurveto
            22 36 rmoveto
            -211 -126 -167 -180 -192 144 -141 181 183 151 132 216 91 -31 76 -48 55 hvcurveto
            return
          </CharString>
          <CharString index="40">
            106 0 32 190 38 173 31 hstem
            136 82 253 96 vstem
            69 464 rmoveto
            -28 vlineto
            62 -8 5 -3 -77 vvcurveto
            -88 -76 -38 76 -106 vlineto
            -76 -6 -6 -67 -7 vhcurveto
            -27 203 vlineto
            162 139 77 174 65 -26 52 -36 33 hvcurveto
            46 -51 -74 17 -86 hhcurveto
            -76 -242 rmoveto
            122 38 -122 113 hlineto
            27 2 14 6 7 vhcurveto
            7 6 20 5 29 hhcurveto
            111 79 -55 -145 -120 -60 -81 -118 -61 -14 17 64 hvcurveto
            endchar
          </CharString>
          <CharString index="41">
            149 326 callgsubr
            7 168 -149 190 235 168 -168 204 hintmask 11000100
            655 hmoveto
            28 vlineto
            -69 7 -23 15 -46 70 -48 73 -55 87 -55 86 68 103 33 47 21 29 rrcurveto
            hintmask 11011000
            45 59 19 10 74 8 rrcurveto
            28 -229 -28 vlineto
            67 -8 5 -10 -25 -44 -26 -49 -30 -48 -42 -65 -44 67 -38 58 -33 57 -15 26 2 9 60 7 rrcurveto
            28 -245 -28 vlineto
            71 -8 14 -11 42 -65 35 -56 47 -74 52 -84 -87 -136 -52 -72 -24 -31 rrcurveto
            hintmask 11100100
            -29 -38 -31 -13 -57 -6 rrcurveto
            -28 229 28 vlineto
            -67 8 -5 10 24 43 32 59 41 69 48 74 63 -98 45 -75 25 -41 19 -33 -7 -9 -62 -7 rrcurveto
            -28 vlineto
            endchar
          </CharString>
          <CharString index="42">
            hstem
            43 92 311 93 vstem
            481 485 rmoveto
            -28 19 -39 -57 rlineto
            19 -36 -41 10 -46 hhcurveto
            -110 -138 -79 -175 -69 33 -72 64 -47 hvcurveto
            -38 -55 26 -22 42 60 rlineto
            -19 33 43 -11 46 hhcurveto
            122 125 88 162 78 -35 70 -60 43 hvcurveto
            -267 -336 rmoveto
            -26 36 -16 52 61 vvcurveto
            133 69 70 78 42 31 -16 -31 27 vhcurveto
            22 -29 rmoveto
            29 -40 13 -55 -51 vvcurveto
            -152 -73 -50 -74 -39 -35 14 29 -24 vhcurveto
            return
          </CharString>
          <CharString index="43">
            rmoveto
            -24 -60 callgsubr
            return
          </CharString>
          <CharString index="44">
            79 0 33 399 32 -27 27 143 callgsubr
            254 94 hintmask 11011000
            45 464 rmoveto
            hintmask 10111000
            -27 vlineto
            61 -5 554 callgsubr
            -245 vlineto
            -71 -7 -6 -66 -5 vhcurveto
            -27 201 vlineto
            163 138 77 171 hvcurveto
            hintmask 11011000
            66 -26 54 -36 33 vhcurveto
            46 -50 -74 17 -86 hhcurveto
            -76 -91 rmoveto
            27 4 13 5 7 vhcurveto
            7 7 19 5 29 hhcurveto
            110 80 -52 -146 -122 -62 -79 -119 -56 -17 15 64 hvcurveto
            return
          </CharString>
          <CharString index="45">
            63 0 -53 callsubr
            return
          </CharString>
          <CharString index="46">
            495 163 rmoveto
            -15 -46 -19 -32 -17 -20 rrcurveto
            -26 -23 -34 -5 -55 hhcurveto
            -42 -34 2 11 -20 hvcurveto
            -18 10 -5 20 54 vvcurveto
            395 vlineto
            85 9 5 79 6 vhcurveto
            28 -261 -28 vlineto
            81 -6 7 -5 -85 vvcurveto
            -400 vlineto
            -85 -8 -7 -84 -6 vhcurveto
            -28 453 vlineto
            9 31 21 95 6 31 rrcurveto
            return
          </CharString>
          <CharString index="47">
            48 callgsubr
            6 -42 callsubr
            return
          </CharString>
          <CharString index="48">
            60 0 27 125 39 287 -20 return
          </CharString>
          <CharString index="49">
            -208 437 27 hstem
            117 81 vstem
            268 464 rmoveto
            -226 552 callgsubr
            6 -5 -74 vvcurveto
            -194 vlineto
            -66 -2 -55 -9 -43 vhcurveto
            -10 -43 -21 -30 -41 -20 13 -28 rcurveline
            21 7 25 12 26 20 rrcurveto
            68 53 11 70 94 vvcurveto
            223 vlineto
            74 7 5 63 5 vhcurveto
            return
          </CharString>
          <CharString index="50">
            -28 482 vlineto
            9 31 20 94 6 33 rrcurveto
            return
          </CharString>
          <CharString index="51">
            17 214 callgsubr
            return
          </CharString>
          <CharString index="52">
            -74 30 rmoveto
            -24 11 -27 16 25 vvcurveto
            25 21 -40 callsubr
          </CharString>
          <CharString index="53">
            58 0 28 234 40 316 516 callsubr
            218 96 hintmask 11101100
            46 650 rmoveto
            hintmask 11011100
            -28 vlineto
            74 -5 8 -4 -88 vvcurveto
            -400 vlineto
            -83 -8 -8 -80 -6 vhcurveto
            -28 271 28 vlineto
            -90 6 -9 5 85 vvcurveto
            157 vlineto
            74 -19 11 -1 19 0 15 1 rlinecurve
            97 13 98 63 129 vvcurveto
            hintmask 11101100
            66 -26 46 -39 29 vhcurveto
            30 -40 -57 12 -71 hhcurveto
            -81 -91 rmoveto
            28 3 12 8 7 vhcurveto
            7 7 21 5 28 hhcurveto
            82 69 -46 -108 -127 -80 -35 -65 -33 -27 7 5 -13 hvcurveto
            endchar
          </CharString>
          <CharString index="54">
            28 -28 34 283 39 259 35 -28 28 return
          </CharString>
          <CharString index="55">
            rmoveto
            212 callgsubr
            168 120 callsubr
            -27 -21 -22 -28 -25 21 530 callsubr
          </CharString>
          <CharString index="56">
            rmoveto
            -20 51 -25 83 callsubr
            -9 97 callsubr
            43 -60 rrcurveto
            endchar
          </CharString>
          <CharString index="57">
            364 0 27 -27 35 262 39 274 40 -35 35 -29.5 29.5 hstemhm
            -11 160 284 83 199 30 hintmask 0110100110000000
            819 165 rmoveto
            -17 -47 -16 -30 -16 -19 rrcurveto
            -27 -23 -34 -7 -71 hhcurveto
            -47 -35 1 11 -20 hvcurveto
            -18 12 -6 20 52 vvcurveto
            166 vlineto
            90 -1 rlineto
            89 6 -7 -72 14 hvcurveto
            30 195 -30 hlineto
            -68 -13 -6 -9 -90 hhcurveto
            -90 248 hlineto
            29 2 3 30 vhcurveto
            83 hlineto
            69 19 -8 -21 17 hvcurveto
            14 -18 8 -24 10 -40 30 4 rcurveline
            -5 49 -5 68 25 vvcurveto
            -513 hlineto
            hintmask 1010011110000000
            -27 vlineto
            41 -5 51 -7 2 -8 -22 -41 rlinecurve
            -68 -132 -88 -171 -83 -147 -39 -68 -16 -8 -64 -9 rrcurveto
            hintmask 0111001110000000
            -27 229 27 vlineto
            -77 10 -3 13 23 52 26 59 26 52 43 84 rrcurveto
            177 -163 hlineto
            -89 -8 -11 -86 -6 vhcurveto
            -28 473 vlineto
            9 31 20 96 6 31 rrcurveto
            -414 178 rmoveto
            -159 hlineto
            57 113 35 69 39 72 rrcurveto
            18 14 8 2 6 hhcurveto
            return
          </CharString>
          <CharString index="58">
            461 callgsubr
            32 5 8 10 15 19 -17 17 29 callsubr
          </CharString>
          <CharString index="59">
            119 -73 66 -36 -19 -25 -11 -5 -5 vhcurveto
            return
          </CharString>
          <CharString index="60">
            271 -6 31 -25 31 190 36 175 32 -25 31 hstemhm
            43 95 260 81 152 27 17 27 hintmask 0111011100000000
            710 128 rmoveto
            -13 -36 -12 -23 -12 -14 rrcurveto
            -19 -18 -27 -5 -50 hhcurveto
            -43 -26 1 8 -13 hvcurveto
            -12 8 -5 21 37 vvcurveto
            115 74 vlineto
            63 5 -5 -53 10 hvcurveto
            27 150 -27 hlineto
            -49 -9 -4 -7 -65 hhcurveto
            -74 147 hlineto
            27 1 1 29 vhcurveto
            54 hlineto
            hintmask 0111011110000000
            55 18 -7 -16 12 hvcurveto
            10 -13 8 -18 9 -31 27 2 rcurveline
            -4 46 -3 49 -1 20 rrcurveto
            -244 hlineto
            -36 -33 6 -59 hhcurveto
            hintmask 1010111100000000
            -143 -136 -79 -169 -120 87 -108 173 16 22 1 2 25 hvcurveto
            hintmask 0111011100000000
            2 28 30 1 32 hhcurveto
            256 hlineto
            6 20 16 73 5 32 rrcurveto
            hintmask 1010111100000000
            -341 -21 rmoveto
            -33 -2 -25 -15 -9 vhcurveto
            -7 -13 -20 -5 -33 hhcurveto
            -111 -66 83 127 133 69 71 103 38 26 -8 -7 14 hvcurveto
            8 -4 2 -14 -23 vvcurveto
            endchar
          </CharString>
          <CharString index="61">
            218 0 27 -27 31 171 37 193 32 hstemhm
            15 127 205 78 152 27 16 28 hintmask 01110110
            657 129 rmoveto
            -13 -36 -12 -24 -13 -13 rrcurveto
            -19 -17 -28 -6 -51 hhcurveto
            -43 -25 2 9 -12 hvcurveto
            -13 8 -5 22 40 vvcurveto
            90 74 vlineto
            64 4 -7 -52 10 hvcurveto
            27 153 -27 hlineto
            -51 -10 -3 -6 -65 hhcurveto
            -74 165 hlineto
            27 1 1 28 vhcurveto
            55 hlineto
            hintmask 10111111
            53 19 -7 -16 12 494 callgsubr
            -31 28 4 rcurveline
            -4 45 -3 49 -1 20 rrcurveto
            -434 -27 hlineto
            48 -6 30 -4 4 -4 -10 -21 rlinecurve
            -75 -139 -47 -88 -35 -59 -22 -35 rlinecurve
            -25 -41 -25 -9 -34 -4 rrcurveto
            hintmask 01111110
            -27 183 27 vlineto
            -26 4 -33 5 -3 10 13 31 rlinecurve
            18 43 24 44 21 38 rrcurveto
            135 -89 hlineto
            -73 -5 -7 -71 -6 vhcurveto
            -27 387 vlineto
            6 20 16 74 5 31 rrcurveto
            -338 114 rmoveto
            -117 hlineto
            23 47 42 78 22 40 rrcurveto
            25 15 7 3 8 hhcurveto
            endchar
          </CharString>
          <CharString index="62">
            -23 0 32 190 37 172 33 return
          </CharString>
          <CharString index="63">
            186 0 -47 callgsubr
            return
          </CharString>
          <CharString index="64">
            20 -11 21 hhcurveto
            27 33 17 73 22 427 callsubr
            -14 -15 -18 hhcurveto
            -17 return
          </CharString>
          <CharString index="65">
            18 3 25 callsubr
            return
          </CharString>
          <CharString index="66">
            23 -6 23 -17 27 173 31 202 31 449 callsubr
            119 55 -21 88 hintmask 10111010
            -71 callsubr
            hintmask 01111010
            -249 vlineto
            -70 -6 -5 -66 -5 vhcurveto
            -27 223 395 callsubr
            6 69 vvcurveto
            93 23 vlineto
            38 11 -7 -30 18 hvcurveto
            hintmask 10111010
            -62 callgsubr
            hintmask 01111100
            59 -254 rmoveto
            -21 -21 -12 -24 -15 7 -7 8 81 callgsubr
            -28 rlineto
            56 14 50 32 59 vvcurveto
            48 -36 31 -38 vhcurveto
            endchar
          </CharString>
          <CharString index="67">
            15 33 -1 vhcurveto
            4 1 8 10 15 vvcurveto
            -22 callsubr
          </CharString>
          <CharString index="68">
            53 callsubr
            206 callgsubr
            34 42 hintmask 1000011110000000
            -42 callgsubr
            300 vlineto
            37 9 39 27 49 vvcurveto
            52 -27 19 -31 vhcurveto
            hintmask 1000101110000000
            -59 callgsubr
            hintmask 1000011110000000
            101 callgsubr
            hintmask 1001001110000000
            -5 callsubr
            hintmask 0100011110000000
            -30 callgsubr
            hintmask 0010011110000000
            301 callgsubr
            return
          </CharString>
          <CharString index="69">
            -59 callsubr
            62 58 162 45 hstemhm
            25 125 143 59 25 162 vstemhm
            -107 callgsubr
            110 283 rmoveto
            -48 -15 -29 -23 -46 hhcurveto
            -44 -33 17 53 -14 hvcurveto
            -32 -3 rlineto
            -97 6 56 -28 58 hhcurveto
            59 52 34 91 12 hvcurveto
            hintmask 11111110
            -117 -32 rmoveto
            19 35 49 20 51 vvcurveto
            25 -19 41 -52 -36 -28 -27 -22 -22 vhcurveto
            8 -25 rlineto
            10 hlineto
            17 13 16 12 15 hhcurveto
            16 20 -11 -29 -31 -32 -22 -6 -29 hvcurveto
            endchar
          </CharString>
          <CharString index="70">
            375 callsubr
            -38 -54 24 -17 rcurveline
            33 31 29 33 26 33 26 489 callgsubr
            endchar
          </CharString>
          <CharString index="71">
            -93 -13 32 426 31 hstemhm
            63 73 30 59 -14 65 16 77 hintmask 11010100
            347 340 rmoveto
            -7 50 -5 36 -6 31 rrcurveto
            5 -18 -37 14 -46 hhcurveto
            hintmask 11110100
            -103 -62 -58 -82 -76 71 -35 55 -23 hvcurveto
            20 -8 rlineto
            50 -21 33 -23 -53 vvcurveto
            -45 -1 -32 -33 -49 hhcurveto
            -76 -44 77 56 -18 hvcurveto
            -29 -5 8 -49 10 -59 6 -17 rlinecurve
            hintmask 11010100
            -11 18 50 -24 58 hhcurveto
            5 5 0 1 5 hvcurveto
            -30 -37 -20 -24 6 -15 25 -22 rlinecurve
            hintmask 11001100
            11 -11 12 -12 -1 -16 rrcurveto
            -19 -18 -20 -41 -18 vhcurveto
            11 -27 rlineto
            69 20 44 39 40 vvcurveto
            23 -11 18 -28 26 vhcurveto
            hintmask 11010100
            -16 16 0 8 12 17 16 20 rcurveline
            71 16 50 52 -1 68 rrcurveto
            82 -61 33 -66 27 vhcurveto
            hintmask 11110100
            -18 7 rlineto
            -51 19 -37 21 53 vvcurveto
            43 33 30 42 62 26 -51 -59 19 vhcurveto
            endchar
          </CharString>
          <CharString index="72">
            -14 25 20 -10 21 hhcurveto
            25 32 234 callgsubr
            14 rlineto
            -29 -13 -13 -16 -18 hhcurveto
            -16 -15 501 callsubr
            return
          </CharString>
          <CharString index="73">
            hintmask 11001000
            181 343 rmoveto
            hintmask 10011000
            109 vlineto
            -48 -21 -44 -12 -49 -8 rrcurveto
            -22 vlineto
            57 -8 5 -4 -66 vvcurveto
            -207 vlineto
            -66 -7 -6 529 callsubr
            230 26 vlineto
            -77 6 -5 6 66 vvcurveto
            hintmask 10101000
            183 vlineto
            56 22 32 30 26 hhcurveto
            16 12 -6 -15 14 hvcurveto
            hintmask 11001000
            6 -6 9 -1 12 5 rrcurveto
            19 9 13 20 20 vvcurveto
            24 -24 26 -34 -48 -43 -56 -50 -30 vhcurveto
            return
          </CharString>
          <CharString index="74">
            -17 -17 -19 -15 7 -10 5 450 callgsubr
            -16 96 callsubr
          </CharString>
          <CharString index="75">
            -28 -15 36 610 34 hstemhm
            62 79 58 59 -12 64 46 82 hintmask 11110100
            411 502 rmoveto
            -8 63 -6 41 -4 36 rrcurveto
            12 -38 -41 11 -45 hhcurveto
            -129 -78 -82 -95 -113 104 -51 62 -32 hvcurveto
            69 -37 59 -35 -79 vvcurveto
            -74 -45 -46 -72 -109 -45 101 61 -17 vhcurveto
            -28 -6 6 -50 14 -85 7 -20 rlinecurve
            10 -5 15 -8 27 -9 25 -7 37 -7 39 -1 rrcurveto
            6 6 0 2 6 hvcurveto
            -28 -37 -19 -26 7 -14 24 -24 rlinecurve
            hintmask 11101100
            11 -10 13 -12 -16 vvcurveto
            -1 -20 -19 -21 -41 -18 12 -26 rcurveline
            68 21 45 38 41 vvcurveto
            22 -11 19 -28 27 vhcurveto
            hintmask 11110100
            -15 16 -2 8 11 17 14 22 rcurveline
            97 20 62 71 91 vvcurveto
            114 -93 48 -77 37 vhcurveto
            -80 40 -47 35 74 vvcurveto
            55 37 52 73 87 27 -70 -63 17 vhcurveto
            endchar
          </CharString>
          <CharString index="76">
            59 8 43 35 53 vvcurveto
            56 -29 24 -37 -25 -19 -19 -24 -18 15 -10 8 -2 vhcurveto
            36 -4 5 -7 -17 vvcurveto
            -15 -13 -25 -45 -13 -19 3 7 -12 vhcurveto
            return
          </CharString>
          <CharString index="77">
            46 0 27 -27 32 401 31 -27 27 hstemhm
            29 141 -130 165 145 178 -162 137 hintmask 10010010
            528 hmoveto
            27 vlineto
            -56 7 -15 8 -29 42 -122 177 rcurveline
            hintmask 10010101
            34 49 33 44 31 37 28 33 19 5 52 8 rrcurveto
            27 -183 -27 vlineto
            24 -5 24 -4 4 -7 -16 -27 rlinecurve
            -17 -30 -25 -36 -27 -39 rrcurveto
            hintmask 10100100
            -75 113 -11 17 1 8 16 3 rlinecurve
            28 6 rlineto
            hintmask 10010100
            28 -206 -27 vlineto
            45 -7 18 -4 23 -35 111 -166 rcurveline
            -34 -51 -33 -47 -35 -44 rrcurveto
            hintmask 10011000
            -32 -42 -17 -7 -57 -7 rrcurveto
            -27 194 26 vlineto
            hintmask 01011010
            -33 6 -23 4 -2 10 13 24 rlinecurve
            20 35 24 41 36 49 rrcurveto
            hintmask 10010010
            83 -127 14 -21 -2 -11 -25 -4 rlinecurve
            -29 -5 rlineto
            -27 vlineto
            endchar
          </CharString>
          <CharString index="78">
            -89 callsubr
            43 return
          </CharString>
          <CharString index="79">
            -33 -36 -1 -36 hhcurveto
            -45 -18 19 20 14 16 18 14 9 hvcurveto
            -2 16 18 -3 17 hhcurveto
            85 90 52 108 36 -11 31 -19 22 hvcurveto
            57 -3 rlineto
            return
          </CharString>
          <CharString index="80">
            498 callsubr
            hstemhm
            49 21 134 60 -50 82 -46 66 hintmask 11101000
            444 481 rmoveto
            -13 -11 -6 -4 -20 hhcurveto
            -298 hlineto
            -19 -9 2 15 -11 hvcurveto
            -21 hlineto
            -1 -36 -5 -51 -3 -58 rrcurveto
            28 hlineto
            8 37 7 19 10 14 rrcurveto
            18 13 15 8 62 hhcurveto
            31 -322 hlineto
            -72 -6 -5 -69 -5 vhcurveto
            hintmask 11110000
            -28 115 vlineto
            -38 -51 -20 -25 6 -14 25 -23 rlinecurve
            hintmask 11100100
            11 -11 12 -12 -16 vvcurveto
            -21 -19 -21 -41 -18 vhcurveto
            12 131 callsubr
            hintmask 11110000
            -16 16 -2 8 13 17 rrcurveto
            hintmask 11101000
            22 27 rlineto
            81 28 hlineto
            -73 5 -6 4 74 vvcurveto
            321 44 vlineto
            45 21 -6 -17 13 hvcurveto
            9 -12 9 -22 8 -39 29 2 rcurveline
            285 callsubr
            endchar
          </CharString>
          <CharString index="81">
            121 callsubr
            105 103 hstemhm
            85 101 -84 79 hintmask 11110000
            88 callgsubr
            hintmask 11101000
            117 -536 rmoveto
            432 callgsubr
            68 vvcurveto
            345 vlineto
            -44 -18 -47 -13 -51 -8 rrcurveto
            -24 vlineto
            60 -10 3 -4 -62 vvcurveto
            -206 vlineto
            -68 -7 -6 -63 329 callgsubr
            endchar
          </CharString>
          <CharString index="82">
            -23 26 -6 callsubr
            return
          </CharString>
          <CharString index="83">
            44 330 callgsubr
            13 vhcurveto
            return
          </CharString>
          <CharString index="84">
            hlineto
            52 46 rlineto
            75 66 31 38 48 vvcurveto
            69 -54 38 -56 -38 -36 -16 -29 -23 vhcurveto
            -32 -43 17 -18 rlineto
            27 20 28 28 37 hhcurveto
            37 30 -23 -50 -81 -115 -87 -56 -45 hvcurveto
            -22 243 vlineto
            6 27 7 29 10 32 rrcurveto
            endchar
          </CharString>
          <CharString index="85">
            19 -17 17 5 callsubr
          </CharString>
          <CharString index="86">
            48 callsubr
            232 46 hstemhm
            42 94 306 60 -55 94 hintmask 11010100
            43 callgsubr
            hintmask 11111000
            51 59 rmoveto
            23 38 50 22 50 vvcurveto
            26 -20 42 -54 -40 -29 -26 -23 -22 vhcurveto
            8 -26 rlineto
            9 hlineto
            17 16 17 490 callgsubr
            -29 -28 -33 -25 -7 -31 hvcurveto
            endchar
          </CharString>
          <CharString index="87">
            145 0 28 299 33 235 70 -43 28 hstemhm
            126 85 hintmask 11011000
            635 hmoveto
            28 vlineto
            -49 5 -28 12 -35 64 -33 60 -27 53 -19 32 -33 56 -37 23 -47 14 rrcurveto
            3 vlineto
            16 10 42 23 38 77 rrcurveto
            hintmask 11101000
            98 48 21 37 44 hhcurveto
            22 hlineto
            21 1 20 11 18 vvcurveto
            21 -20 19 -34 -44 -39 -28 -78 -35 vhcurveto
            -37 -84 -19 -45 -32 -29 -32 -31 -27 -9 -69 -1 rrcurveto
            hintmask 11011000
            172 vlineto
            79 9 5 76 519 callsubr
            76 -6 8 -6 -78 vvcurveto
            -407 vlineto
            -85 -8 -6 -76 -6 vhcurveto
            -28 254 28 vlineto
            -76 6 -9 6 85 vvcurveto
            202 vlineto
            68 1 39 -9 41 -84 28 -54 30 -60 14 -29 rrcurveto
            -60 29 28 -32 63 hhcurveto
            return
          </CharString>
          <CharString index="88">
            74 -195 65 130 235 callgsubr
            hstem
            111 38 297 38 vstem
            558 464 rmoveto
            -195 -27 hlineto
            58 -4 17 -9 3 -32 rrcurveto
            3 -25 2 -33 -69 vvcurveto
            -127 -2 vlineto
            -282 326 rlineto
            -136 -27 hlineto
            70 -6 15 -14 -84 vvcurveto
            -134 vlineto
            -69 -3 -36 -3 -24 vhcurveto
            -4 -30 -18 -9 -46 -4 rrcurveto
            -27 195 27 vlineto
            -55 4 -18 9 -4 31 rrcurveto
            -3 23 -3 36 69 vvcurveto
            157 vlineto
            1 1 293 -353 rlineto
            -97 -3 -25 -37 -35 -17 -10 5 -8 hhcurveto
            -10 -4 -10 -9 -28 22 -23 20 34 27 20 40 21 hvcurveto
            23 46 6 59 99 vvcurveto
            196 vlineto
            69 2 33 3 26 vhcurveto
            3 31 18 9 48 4 rrcurveto
            endchar
          </CharString>
          <CharString index="89">
            441 141 rmoveto
            -16 -44 -11 -22 -17 -17 rrcurveto
            -21 -21 -42 -5 -78 hhcurveto
            -51 -31 1 3 -22 hvcurveto
            return
          </CharString>
          <CharString index="90">
            rmoveto
            -40 52 -37 54 -27 45 rrcurveto
            -30 hlineto
            -28 -47 -38 -52 -38 -52 24 -20 rcurveline
            33 201 callsubr
            33 -29 rrcurveto
            return
          </CharString>
          <CharString index="91">
            2 -59 -4 callsubr
            return
          </CharString>
          <CharString index="92">
            4 -236 -21 29 -21 43 50 166 -21 32 -21 388 61 return
          </CharString>
          <CharString index="93">
            -200 269 43 -43 46 200 30 hstemhm
            33 62 91 57 hintmask 01111000
            295 302 rmoveto
            -7 19 rlineto
            -4 -9 -8 -2 -7 hhcurveto
            -10 -11 7 27 hvcurveto
            108 vlineto
            58 -32 30 -57 vhcurveto
            -38 -6 -43 -24 -16 -12 rrcurveto
            -13 -8 -8 -9 -11 vvcurveto
            -15 18 -13 14 10 7 4 11 4 vhcurveto
            31 9 15 22 23 hhcurveto
            31 19 -23 -32 hvcurveto
            -10 vlineto
            -22 -16 -51 -16 -32 -12 rrcurveto
            hintmask 10111000
            -32 -12 -16 -21 -28 vvcurveto
            -37 32 -39 45 19 32 22 17 26 vhcurveto
            hintmask 01101000
            6 -19 13 -18 26 -2 rrcurveto
            hintmask 10111000
            -46 63 rmoveto
            -9 -10 -18 -11 -19 hhcurveto
            -22 -22 16 28 20 9 9 20 11 hvcurveto
            17 7 32 13 13 7 rrcurveto
            endchar
          </CharString>
          <CharString index="94">
            48 callsubr
            72 58 -20 57 hstemhm
            278 callgsubr
            hintmask 11011100
            -102 callsubr
            -43 199 rmoveto
            -25 -34 146 callsubr
            17 12 -4 -10 17 hvcurveto
            hintmask 11101100
            428 callgsubr
            27 33 17 73 22 hvcurveto
            -26 305 callgsubr
            -13 -15 -18 hhcurveto
            -17 -16 7 11 -21 hvcurveto
            hintmask 11011100
            72 callgsubr
          </CharString>
          <CharString index="95">
            23 -11 32 424 32 hstemhm
            43 94 114 59 -14 67 hintmask 11110000
            465 141 rmoveto
            -79 -35 -44 -41 -73 hhcurveto
            -102 -74 91 128 113 65 92 105 70 48 -25 -91 24 hvcurveto
            29 5 -6 46 -3 37 -5 40 rlinecurve
            6 -25 -53 14 -66 hhcurveto
            -156 -121 -102 -148 -118 78 -116 171 -4 hvcurveto
            -30 -41 -18 -25 5 -14 25 -24 rlinecurve
            hintmask 11101000
            11 -11 12 -12 -1 -16 rrcurveto
            -21 -20 -21 -42 -19 vhcurveto
            13 -27 rlineto
            71 21 45 40 41 vvcurveto
            23 -11 19 -27 28 vhcurveto
            hintmask 11110000
            -17 17 -3 8 14 18 13 16 rcurveline
            43 2 60 12 17 5 15 27 16 60 10 39 rrcurveto
            endchar
          </CharString>
          <CharString index="96">
            -6 rlinecurve
            -14 -55 -16 -55 93 callgsubr
            return
          </CharString>
          <CharString index="97">
            7 -236 -21 33 -21 233 56 -56 62 400 -20 hstemhm
            71 80 191 80 hintmask 01101110
            498 54 rmoveto
            -5 -9 -14 -5 -12 hhcurveto
            -21 -20 15 55 hvcurveto
            336 vlineto
            -80 -18 rlineto
            hintmask 10011110
            -329 vlineto
            -23 -18 -39 -30 -42 hhcurveto
            -41 -51 27 96 hvcurveto
            171 vlineto
            37 0 45 -2 24 vhcurveto
            -81 -19 rlineto
            2 -23 1 -37 -36 vvcurveto
            -294 vlineto
            -105 -3 -138 5 -16 vhcurveto
            15 -16 38 -21 22 -2 rrcurveto
            hintmask 01011110
            13 12 -15 40 -23 140 1 79 rlinecurve
            16 4 vlineto
            -23 16 30 -19 36 hhcurveto
            51 44 34 44 38 hvcurveto
            2 hlineto
            -46 6 30 -32 42 hhcurveto
            34 35 20 20 16 hvcurveto
            endchar
          </CharString>
          <CharString index="98">
            -147 hmoveto
            218 callgsubr
            -43 31 -33 127 callsubr
            20 -15 397 callsubr
            449 callgsubr
          </CharString>
          <CharString index="99">
            63 -239 58 181 27 124 40 286 -20 hstem
            26 125 119 67 vstem
            540 hmoveto
            27 vlineto
            -45 4 -19 7 -23 58 -154 381 rcurveline
            -31 -7 -147 -358 -30 -73 -19 -7 -46 -5 rlinecurve
            -27 181 27 vlineto
            -24 4 -30 4 -9 10 12 37 rlinecurve
            7 27 9 22 8 20 rrcurveto
            163 hlineto
            40 -106 5 -12 -4 -8 -8 -7 rlinecurve
            -52 -51 -54 -68 -56 vvcurveto
            -38 19 -44 67 9 15 4 5 10 vhcurveto
            56 33 -7 25 rlineto
            -6 -15 -17 -3 -14 hhcurveto
            -33 -23 16 37 41 34 59 33 28 hvcurveto
            -77 191 rmoveto
            -133 hlineto
            66 175 rlineto
            2 hlineto
            endchar
          </CharString>
          <CharString index="100">
            235 vlineto
            26 30 39 25 40 hhcurveto
            67 24 -45 -69 hvcurveto
            -167 vlineto
            -69 -7 -8 -59 329 callgsubr
            return
          </CharString>
          <CharString index="101">
            174 callsubr
            29 244 callgsubr
            return
          </CharString>
          <CharString index="102">
            -48 -9 -48 -6 -47 -3 rrcurveto
            -23 vlineto
            58 -10 3 -7 -53 vvcurveto
            -196 vlineto
            -108 57 -41 67 27 21 8 17 29 vhcurveto
            return
          </CharString>
          <CharString index="103">
            -8 -8 -11 callsubr
            return
          </CharString>
          <CharString index="104">
            489 callsubr
            24 46 vvcurveto
            43 -38 22 -28 452 callgsubr
            -9 6 -7 2 528 callgsubr
            262 callsubr
            -22 -6 vhcurveto
            endchar
          </CharString>
          <CharString index="105">
            -176 622 28 hstem
            133 85 vstem
            303 650 rmoveto
            -259 -28 hlineto
            81 -6 8 -7 -84 vvcurveto
            -341 vlineto
            -84 -2 -58 -9 -48 vhcurveto
            -10 -57 -30 -46 -56 -28 13 -28 rcurveline
            25 8 34 19 34 31 rrcurveto
            66 61 20 69 128 vvcurveto
            374 vlineto
            84 8 7 77 6 vhcurveto
            return
          </CharString>
          <CharString index="106">
            143 callgsubr
            147 28 16 27 return
          </CharString>
          <CharString index="107">
            15 29 28 31 hhcurveto
            34 19 -21 -25 -37 -40 -22 -60 -19 hvcurveto
            7 -25 rlineto
            hintmask 11010000
            4 12 13 3 16 hhcurveto
            38 39 -20 -47 -53 -29 -22 -36 return
          </CharString>
          <CharString index="108">
            hintmask 11001000
            -97 callsubr
            return
          </CharString>
          <CharString index="109">
            51 callgsubr
            85 58 -20 57 143 callgsubr
            hintmask 11011000
            -95 callgsubr
            61 644 rmoveto
            -26 -33 72 callsubr
            hintmask 11101000
            49 callgsubr
            7 11 -21 hvcurveto
            hintmask 11011000
            72 callgsubr
          </CharString>
          <CharString index="110">
            -248 -11 rmoveto
            57 37 -56 -79 -79 -39 -39 -44 -1 hvcurveto
            -56 -38 56 78 78 39 42 44 hvcurveto
            22 -430 rmoveto
            return
          </CharString>
          <CharString index="111">
            rmoveto
            -26 -22 -21 475 callsubr
            26 27 20 22 26 28 438 callsubr
            return
          </CharString>
          <CharString index="112">
            -26 551 callsubr
            -67 63 -25 30 -7 vhcurveto
            endchar
          </CharString>
          <CharString index="113">
            -48 -18 -62 -24 -68 vvcurveto
            -86 76 -49 93 84 61 42 66 38 vhcurveto
            return
          </CharString>
          <CharString index="114">
            297 callgsubr
            -22 hlineto
            -41 -42 -44 -34 -44 169 callgsubr
            41 23 40 -24 43 -20 41 -17 rrcurveto
            return
          </CharString>
          <CharString index="115">
            42 29 -3 -10 25 hvcurveto
            29 -12 17 -25 -34 vvcurveto
            -62 -49 -49 -95 -74 -58 41 54 29 20 28 26 21 vhcurveto
            return
          </CharString>
          <CharString index="116">
            426 -524 rlineto
            31 403 hlineto
            93 2 45 4 30 vhcurveto
            4 44 24 13 56 3 rrcurveto
            return
          </CharString>
          <CharString index="117">
            30 rmoveto
            -23 83 callgsubr
            5 8 10 15 239 callgsubr
          </CharString>
          <CharString index="118">
            476 437 rmoveto
            -180 -25 hlineto
            34 -8 26 -6 7 -7 -9 -30 rlinecurve
            -15 -51 -51 -146 -26 -63 -99 259 rcurveline
            -10 28 2 10 21 5 33 9 rcurveline
            25 -210 -25 vlineto
            53 -7 12 -14 18 -43 35 -88 49 -120 44 -123 3 -10 4 -12 -4 -13 -6 -19 -10 -23 -12 -23 -26 -55 -42 -32 -46 -11 rrcurveto
            -14 -2 -5 -8 -14 vvcurveto
            -29 1 25 -23 27 hhcurveto
            16 22 16 41 26 hvcurveto
            36 55 45 119 29 74 58 149 31 82 24 54 26 60 10 9 48 10 rrcurveto
            return
          </CharString>
          <CharString index="119">
            92 callgsubr
            -38 -53 24 397 callgsubr
            return
          </CharString>
          <CharString index="120">
            98 0 27 410 434 callgsubr
            230 81 vstem
            -95 callgsubr
            532 464 rmoveto
            -226 552 callgsubr
            6 -5 -74 vvcurveto
            -194 vlineto
            -66 -2 -55 -9 -43 vhcurveto
            -9 -43 -21 -30 -42 238 callgsubr
          </CharString>
          <CharString index="121">
            -37 -257 51 195 69 75 32 215.5 43.5 -5 30 -19 8 0 -20 return
          </CharString>
          <CharString index="122">
            140 -206 50 144 62 379 20 4 -20 return
          </CharString>
          <CharString index="123">
            rmoveto
            32 13 14 16 16 hhcurveto
            16 12 -5 -10 18 hvcurveto
            return
          </CharString>
          <CharString index="124">
            45 callgsubr
            43 -34 31 -53 9 hvcurveto
            endchar
          </CharString>
          <CharString index="125">
            rmoveto
            17 61 51 31 35 16 25 11 25 7 22 4 -5 26 rcurveline
            -26 -5 -26 -3 -35 -11 rrcurveto
            -74 -22 -88 -67 -116 vvcurveto
            -91 63 -54 72 78 57 58 70 64 -42 48 -76 -11 -14 -4 -7 -14 vhcurveto
            13 -28 rmoveto
            49 29 -37 -55 -42 -17 return
          </CharString>
          <CharString index="126">
            83 vstem
            711 hmoveto
            28 vlineto
            -76 6 -9 5 86 vvcurveto
            394 vlineto
            89 9 8 76 6 vhcurveto
            28 -179 -10 vlineto
            -9 -2 -10 -9 -14 vhcurveto
            -314 -516 rlineto
            -2 hlineto
            4 99 0 52 46 vvcurveto
            244 vlineto
            78 10 6 75 6 vhcurveto
            28 -252 -28 vlineto
            76 -6 8 -6 -79 vvcurveto
            -399 vlineto
            -91 -8 -7 -76 -6 vhcurveto
            -28 176 11 vlineto
            13 1 13 8 12 vhcurveto
            317 523 rlineto
            4 hlineto
            -5 -96 0 -57 -33 vvcurveto
            -261 vlineto
            -86 -9 -5 -77 502 callsubr
            return
          </CharString>
          <CharString index="127">
            -24 0 27 77 36 199 31 67 27 hstem
            116 79 157 89 vstem
            267 464 rmoveto
            -222 -27 hlineto
            66 -6 5 0 -71 vvcurveto
            -257 vlineto
            -68 -5 -2 -66 -6 vhcurveto
            -27 225 27 vlineto
            -69 6 -6 2 63 vvcurveto
            21 vlineto
            51 -12 10 -2 11 -2 13 1 rlinecurve
            84 3 77 43 92 vvcurveto
            90 -70 38 -101 -24 -25 0 -1 -25 vhcurveto
            61 5 1 66 6 vhcurveto
            -72 -141 rmoveto
            37 3 6 42 64 48 -26 -73 -79 -56 -21 -40 -23 -24 5 6 -14 vhcurveto
            endchar
          </CharString>
          <CharString index="128">
            436 callsubr
            2 -60 -4 callsubr
            65 callsubr
            -43 -31 -53 -67 63 -25 30 -7 vhcurveto
            endchar
          </CharString>
          <CharString index="129">
            523 hmoveto
            26 vlineto
            -58 6 -5 4 68 vvcurveto
            193 vlineto
            97 -50 55 -79 -29 -26 -12 -18 -28 vhcurveto
            return
          </CharString>
          <CharString index="130">
            230 0 36 580 34 hstem
            127 86 379 98 vstem
            42 650 rmoveto
            -29 vlineto
            77 -6 8 -4 -86 vvcurveto
            -401 vlineto
            -85 -8 -6 -86 -6 vhcurveto
            -27 237 vlineto
            123 99 25 58 75 hvcurveto
            77 58 46 89 120 vvcurveto
            94 -35 73 -49 48 vhcurveto
            59 -62 -94 26 -127 hhcurveto
            -110 -103 rmoveto
            39 3 11 10 7 vhcurveto
            7 10 26 5 42 hhcurveto
            67 58 -12 -29 45 hvcurveto
            80 -47 38 -89 -103 vvcurveto
            -160 -86 -140 -187 -73 -33 19 76 vhcurveto
            return
          </CharString>
          <CharString index="131">
            16 callgsubr
            -2 -8 rcurveline
            return
          </CharString>
          <CharString index="132">
            67 callgsubr
            -7 -17 -8 -20 return
          </CharString>
          <CharString index="133">
            rmoveto
            -73 -47 -46 -52 -41 369 callgsubr
            -9 -22 -14 -9 -9 rrcurveto
            -13 -12 -15 -16 -29 vvcurveto
            -60 56 -37 69 59 73 35 70 53 -41 24 -36 19 vhcurveto
            hintmask 11101000
            23 15 13 11 6 6 rrcurveto
            12 13 7 18 17 vvcurveto
            hintmask 11011000
            47 -47 39 -61 vhcurveto
            -7 -27 317 callsubr
            19 -35 21 37 vvcurveto
            27 20 24 317 callgsubr
            29 15 28 26 15 hvcurveto
            64 -28 32 return
          </CharString>
          <CharString index="134">
            29 0 26 366 57 263 -20 hstem
            87 79 202 79 vstem
            513 hmoveto
            26 vlineto
            -59 5 -7 6 66 vvcurveto
            175 vlineto
            120 -57 51 -81 -54 -54 -37 -36 -35 vhcurveto
            336 vlineto
            -39 -12 -60 -16 -48 -7 rrcurveto
            -23 vlineto
            66 -6 2 -5 -63 vvcurveto
            -477 vlineto
            -66 -9 -6 -60 -5 285 callgsubr
            -59 6 -5 7 64 vvcurveto
            238 vlineto
            32 28 38 19 38 hhcurveto
            67 31 -41 -82 hvcurveto
            -166 vlineto
            -65 -8 -6 -58 329 callgsubr
            return
          </CharString>
          <CharString index="135">
            -27 0 31 406 27 hstem
            129 82 vstem
            427 134 rmoveto
            -13 -37 -10 -24 -13 -16 -16 -19 -27 -6 -46 -1 rrcurveto
            -35 -23 2 6 -15 hvcurveto
            -13 7 -5 18 38 vvcurveto
            127 vlineto
            106 74 rlineto
            43 vlineto
            -106 -74 rlineto
            88 vlineto
            67 7 4 67 6 vhcurveto
            27 -226 -27 vlineto
            64 -5 6 -4 -68 vvcurveto
            -141 vlineto
            -81 -56 rlineto
            -42 vlineto
            81 55 rlineto
            -68 vlineto
            -72 -6 -4 -69 -5 vhcurveto
            -27 375 vlineto
            5 21 16 79 6 30 rrcurveto
            endchar
          </CharString>
          <CharString index="136">
            -27 -33 -44 callgsubr
          </CharString>
          <CharString index="137">
            hstem
            37 89 261 89 vstem
            432 454 rmoveto
            -27 18 -36 -52 rlineto
            19 -33 -34 10 -42 hhcurveto
            -93 -130 -75 -164 -64 29 -65 51 -43 hvcurveto
            -38 -52 25 -22 40 55 rlineto
            -20 33 38 -11 44 hhcurveto
            101 116 81 158 70 -30 63 -50 41 hvcurveto
            -239 -301 rmoveto
            -20 34 -11 46 53 vvcurveto
            119 57 64 66 36 33 -18 -26 19 vhcurveto
            20 -31 rmoveto
            20 -36 10 -44 -47 vvcurveto
            -139 -57 -54 -62 -41 -31 21 28 -18 vhcurveto
            return
          </CharString>
          <CharString index="138" raw="1">
            7605837a 83770b  
          </CharString>
          <CharString index="139">
            80 445 32 hstem
            43 408 callsubr
            vstem
            559 -107 rmoveto
            -56 29 -72 43 -54 37 rrcurveto
            84 28 81 77 129 vvcurveto
            134 -102 107 -147 -101 -149 -70 -186 -115 87 -103 138 -13 vhcurveto
            77 -58 59 -34 38 -13 23 -7 37 -8 47 4 rrcurveto
            -278 148 rmoveto
            -77 19 -57 85 118 vvcurveto
            133 69 68 78 100 64 -105 -126 -117 -51 -54 -49 -17 vhcurveto
            -8 6 -6 5 -8 6 rrcurveto
            endchar
          </CharString>
          <CharString index="140">
            36 callsubr
            48 39 79 1 hvcurveto
            return
          </CharString>
          <CharString index="141">
            -51 -35 92 callsubr
            return
          </CharString>
          <CharString index="142">
            242 -15 36 608 36 return
          </CharString>
          <CharString index="143">
            19 callgsubr
            68 return
          </CharString>
          <CharString index="144">
            -20 28 37 35 25 18 25 vhcurveto
            return
          </CharString>
          <CharString index="145">
            62 11 -21 447 27 hstem
            25 159 235 125 vstem
            544 464 rmoveto
            -182 -27 hlineto
            22 -4 36 -6 5 -8 -12 -36 rlinecurve
            -17 -53 -55 -140 -36 -87 -45 112 -53 129 -17 44 -11 32 4 6 26 5 28 6 rcurveline
            27 -212 -27 vlineto
            45 -6 15 -5 22 -53 37 -87 68 -166 52 -130 rrcurveto
            30 hlineto
            59 149 65 159 29 58 31 65 11 7 55 9 rrcurveto
            endchar
          </CharString>
          <CharString index="146">
            77 -13 49 401 27 return
          </CharString>
          <CharString index="147">
            131 callgsubr
            4 8 10 15 -22 callsubr
          </CharString>
          <CharString index="148">
            424 callsubr
            -25 33 -29 32 -33 32 -25 -17 rcurveline
            38 -54 32 -53 30 -56 rrcurveto
            25 hlineto
            29 55 32 54 39 54 rrcurveto
            endchar
          </CharString>
          <CharString index="149">
            15 -29 -13 4 -16 hhcurveto
            -26 357 callgsubr
          </CharString>
          <CharString index="150">
            -12 50 callsubr
            return
          </CharString>
          <CharString index="151">
            219 callgsubr
            -29 330 callsubr
            -30 -55 -32 -54 -39 168 callgsubr
            26 -33 29 -34 32 -30 rrcurveto
            return
          </CharString>
          <CharString index="152">
            -7 7 81 callgsubr
            -29 rlineto
            57 15 49 32 59 129 callgsubr
          </CharString>
          <CharString index="153">
            rmoveto
            -88 153 91 callsubr
            return
          </CharString>
          <CharString index="154">
            rmoveto
            29 22 24 28 30 -22 22 -28 -29 -24 -22 -30 -28 24 -24 28 hvcurveto
            endchar
          </CharString>
          <CharString index="155">
            79 -13 230 callgsubr
            return
          </CharString>
          <CharString index="156">
            -16 -20 -32 -26 -40 -15 -1 -10 3 -17 9 -15 13 -21 25 -23 36 -11 rrcurveto
            return
          </CharString>
          <CharString index="157">
            63 -36 -21 30 26 353 23 return
          </CharString>
          <CharString index="158">
            -26 vlineto
            47 -5 3 -8 -20 -31 -19 -27 -30 -39 -22 -22 -15 -16 -18 -13 -30 -6 rrcurveto
            471 vlineto
            -39 -13 -57 -17 -48 -5 rrcurveto
            -23 vlineto
            61 -6 5 -5 -66 vvcurveto
            -473 vlineto
            -64 -6 -8 -67 -6 vhcurveto
            -26 224 313 callsubr
            -9 6 66 553 callsubr
            2 7 5 1 4 hhcurveto
            9 9 -5 -17 13 hvcurveto
            55 -67 63 -80 46 -51 rrcurveto
            return
          </CharString>
          <CharString index="159">
            261 -186 50 136 -24 callgsubr
            return
          </CharString>
          <CharString index="160">
            42 43 callsubr
            -23 393 callgsubr
            13.5 -20 return
          </CharString>
          <CharString index="161">
            122 callgsubr
            30 31 30 27 29 27 -29 277 callgsubr
          </CharString>
          <CharString index="162">
            1 8 10 15 vvcurveto
            return
          </CharString>
          <CharString index="163">
            rmoveto
            -32 -13 -30 -26 -54 hhcurveto
            -55 -29 27 31 -11 hvcurveto
            -29 -2 rlineto
            -64 5 33 -49 85 hhcurveto
            73 45 44 68 7 hvcurveto
            return
          </CharString>
          <CharString index="164">
            7 0 27 589 34 hstem
            126 85 vstem
            487 508 rmoveto
            -5 44 -5 80 -1 18 rrcurveto
            -430 -28 hlineto
            72 -6 8 -4 -87 vvcurveto
            -400 vlineto
            -86 -8 -6 -76 -6 vhcurveto
            -27 266 27 vlineto
            -89 6 -8 6 86 vvcurveto
            454 vlineto
            35 3 2 38 vhcurveto
            64 hlineto
            62 32 -6 -20 14 hvcurveto
            14 -21 8 -21 11 -44 rrcurveto
            return
          </CharString>
          <CharString index="165">
            138 callsubr
            -58 114 callgsubr
          </CharString>
          <CharString index="166">
            -17 -8 -20 -24 vvcurveto
            -50 31 -29 44 101 callsubr
            return
          </CharString>
          <CharString index="167">
            53 callgsubr
            21 return
          </CharString>
          <CharString index="168">
            140 -12 62 379 20 4 -20 return
          </CharString>
          <CharString index="169">
            187 callgsubr
            -15 -38 -15 vhcurveto
            10 -29 141 callsubr
          </CharString>
          <CharString index="170">
            16 -29 -33 9 -34 hhcurveto
            -77 -102 -52 -114 -68 43 -47 45 -19 hvcurveto
            return
          </CharString>
          <CharString index="171">
            -14 rlineto
            30 14 15 15 17 hhcurveto
            return
          </CharString>
          <CharString index="172">
            -74 30 rmoveto
            -24 11 -26 16 25 vvcurveto
            25 20 161 callgsubr
            return
          </CharString>
          <CharString index="173">
            220 callgsubr
            -7 59 callsubr
            return
          </CharString>
          <CharString index="174">
            451 callgsubr
            4 return
          </CharString>
          <CharString index="175">
            rmoveto
            -70 -67 -62 -83 -71 46 -60 83 20 47 11 52 40 hvcurveto
            -13 15 rlineto
            -19 -23 -26 -10 -20 hhcurveto
            -49 -45 30 66 -1 hvcurveto
            72 3 79 5 10 2 rrcurveto
            13 2 4 8 14 vvcurveto
            54 -1 -44 43 -55 hhcurveto
            -74 -103 rmoveto
            51 5 32 27 23 hhcurveto
            30 21 -31 -29 -12 -4 -3 -10 hvcurveto
            endchar
          </CharString>
          <CharString index="176">
            59 -11 58 139 callgsubr
            27 -52 return
          </CharString>
          <CharString index="177">
            45 -47 70 11 11 3 6 13 hvcurveto
            41 19 -18 -70 -64 -55 -95 -17 rlinecurve
            4 -23 rlineto
            22 42 4 14 35 hvcurveto
            89 36 491 callgsubr
            65 -80 vhcurveto
            -9 -28 rmoveto
            55 14 -64 -49 -13 0 -11 -1 -11 hvcurveto
            -8 -12 -19 -6 -20 hhcurveto
            -47 -29 38 46 40 20 38 39 hvcurveto
            endchar
          </CharString>
          <CharString index="178">
            -29 -24 callsubr
            return
          </CharString>
          <CharString index="179">
            146 callsubr
            16 13 -4 -10 17 hvcurveto
            return
          </CharString>
          <CharString index="180">
            229 callsubr
            -13 -15 hhcurveto
            -13 -14 return
          </CharString>
          <CharString index="181">
            rmoveto
            24 205 callsubr
            -24 -28 -18 -21 -26 -26 18 -18 28 hvcurveto
            -64 -22 rmoveto
            -14 59 -14 59 -14 59 -8 2 -57 -11 -8 -4 -2 -7 rcurveline
            32 -53 28 -55 29 -55 rrcurveto
            -124 28 112 callsubr
          </CharString>
          <CharString index="182">
            261 callsubr
            -21 45 -60 -40 -35 -30 -26 -21 vhcurveto
            8 467 callsubr
            return
          </CharString>
          <CharString index="183">
            137 callsubr
            -24 -15 -37 return
          </CharString>
          <CharString index="184">
            29 callgsubr
            27 312 callsubr
          </CharString>
          <CharString index="185">
            hlineto
            19 16 19 12 17 hhcurveto
            19 24 -13 -31 -31 -34 -28 -9 -34 hvcurveto
            endchar
          </CharString>
          <CharString index="186">
            261 callgsubr
            31 160 callgsubr
            return
          </CharString>
          <CharString index="187">
            258 callsubr
            -27 -24 -23 -29 -28 24 -23 26 hvcurveto
            return
          </CharString>
          <CharString index="188">
            59 -13 219 callsubr
            -1 -8 rcurveline
            27 -53 23 return
          </CharString>
          <CharString index="189">
            150 0 27 581 57 -54 54 return
          </CharString>
          <CharString index="190">
            72 -18 289 callgsubr
            -10 return
          </CharString>
          <CharString index="191">
            100 vlineto
            52 5 7 54 6 vhcurveto
            25 -199 -25 vlineto
            58 -6 4 -6 -53 vvcurveto
            -255 vlineto
            -51 -5 -9 -60 516 callgsubr
            -60 6 -5 9 51 vvcurveto
            125 vlineto
            43 22 -9 -37 19 hvcurveto
            14 -28 20 -42 26 -44 rrcurveto
            -51 29 33 -6 38 hhcurveto
            return
          </CharString>
          <CharString index="192">
            95 callgsubr
            -43 -33 17 413 callsubr
            return
          </CharString>
          <CharString index="193">
            0 235 callgsubr
            return
          </CharString>
          <CharString index="194">
            -13 25 -43 callsubr
            return
          </CharString>
          <CharString index="195">
            21 -15 -25 -25 -27 269 callsubr
          </CharString>
          <CharString index="196">
            241 callgsubr
            16 vvcurveto
            18 13 11 501 callgsubr
            6 7 9 21 -17 188 callgsubr
            42 -25 return
          </CharString>
          <CharString index="197">
            hlineto
            -97 4 53 -25 55 hhcurveto
            57 52 30 92 6 hvcurveto
            endchar
          </CharString>
          <CharString index="198">
            97 callgsubr
            -11 32 -33 return
          </CharString>
          <CharString index="199">
            -49 -37 122 callgsubr
            return
          </CharString>
          <CharString index="200">
            402 23 282 23 355 callgsubr
            402 162 callsubr
            276 vlineto
            -46 -15 -42 -9 -44 -6 rrcurveto
            -22 292 callgsubr
          </CharString>
          <CharString index="201">
            381 callsubr
            -19 -42 rrcurveto
            endchar
          </CharString>
          <CharString index="202">
            25 vvcurveto
            25 21 -55 callgsubr
            return
          </CharString>
          <CharString index="203">
            397 callsubr
            270 callgsubr
          </CharString>
          <CharString index="204">
            -5 -3 183 callgsubr
            return
          </CharString>
          <CharString index="205">
            vlineto
            29 -2 rlineto
            35 -2 3 -5 -37 162 callgsubr
            return
          </CharString>
          <CharString index="206">
            -20 35 -31 64 -19 32 -13 4 -41 -14 -12 -6 return
          </CharString>
          <CharString index="207">
            -102 -12 62 164 51 152 32 return
          </CharString>
          <CharString index="208">
            330 callgsubr
            14 vhcurveto
            return
          </CharString>
          <CharString index="209">
            -36 119 -70 -119 -37 119 -81 hlineto
            -67 -4 -8 -81 -5 vhcurveto
            -27 250 27 vlineto
            -81 5 -5 8 67 vvcurveto
            81 123 37 -123 70 123 36 -116 vlineto
            45 94 30 60 23 41 29 53 10 11 53 7 rrcurveto
            endchar
          </CharString>
          <CharString index="210">
            -25 rcurveline
            185 64 rlineto
            endchar
          </CharString>
          <CharString index="211">
            rmoveto
            38 -59 223 -38 vlineto
            -62 -75 -64 -83 -59 -79 rrcurveto
            -24 162 -28 vlineto
            -40 -10 -3 -54 -4 vhcurveto
            -23 180 23 vlineto
            -44 3 -11 4 40 vvcurveto
            28 vlineto
            -61 38 417 callsubr
            47 504 callgsubr
          </CharString>
          <CharString index="212">
            47 -47 39 -61 vhcurveto
            -6 -27 204 callsubr
            -17 -11 hvcurveto
            -49 20 -36 21 36 vvcurveto
            27 20 24 36 vhcurveto
            return
          </CharString>
          <CharString index="213">
            233 callgsubr
            -53 23 return
          </CharString>
          <CharString index="214">
            130 callgsubr
            -10 12 28 -12 29 hhcurveto
            31 return
          </CharString>
          <CharString index="215">
            34 91 12 hvcurveto
            -78 -10 rmoveto
            -28 41 -27 40 -28 41 -10 4 -50 -8 -13 -4 -4 -13 rcurveline
            135 -117 rlineto
            endchar
          </CharString>
          <CharString index="216">
            rlineto
            57 15 49 31 164 callgsubr
          </CharString>
          <CharString index="217">
            238 0 28 -16 -21 631 28 hstemhm
            129 41 return
          </CharString>
          <CharString index="218">
            232 callgsubr
            -29 -38 -23 -42 -47 41 -24 362 callgsubr
          </CharString>
          <CharString index="219">
            281 callsubr
            -18 -21 -26 -26 18 -18 27 hvcurveto
            endchar
          </CharString>
          <CharString index="220">
            rmoveto
            29 21 23 27 30 493 callgsubr
            -30 -27 548 callsubr
          </CharString>
          <CharString index="221">
            rmoveto
            30 128 callsubr
            return
          </CharString>
          <CharString index="222">
            14 10 15 9 22 hhcurveto
            48 40 -43 -64 hvcurveto
            -23 vlineto
            -31 -22 -79 -26 -55 -19 rrcurveto
            -54 -19 -25 -30 -51 vvcurveto
            -58 48 -62 73 29 53 32 30 39 vhcurveto
            35 27 rlineto
            -54 32 56 -35 73 hhcurveto
            30 74 18 79 59 hvcurveto
            return
          </CharString>
          <CharString index="223">
            -11 22 19 -12 20 372 callgsubr
            16 293 callgsubr
            return
          </CharString>
          <CharString index="224">
            199 callsubr
            12 207 callsubr
            return
          </CharString>
          <CharString index="225">
            325 callgsubr
            -39 -40 -44 -34 -43 -33 16 -25 rcurveline
            return
          </CharString>
          <CharString index="226">
            260 callsubr
            -9 -5 rlinecurve
            -14 return
          </CharString>
          <CharString index="227">
            hmoveto
            203 callgsubr
            return
          </CharString>
          <CharString index="228">
            -237 0 396 callgsubr
            return
          </CharString>
          <CharString index="229">
            223 -39 vlineto
            -62 -75 -63 537 callsubr
            -11 -3 -54 -4 vhcurveto
            -23 181 23 vlineto
            -45 3 -10 4 40 vvcurveto
            29 vlineto
            -61 37 241 callsubr
            37 48 rrcurveto
            3 hlineto
            return
          </CharString>
          <CharString index="230">
            -26 2 rlineto
            -30 3 -6 4 41 vvcurveto
            316 59 36 -59 121 vlineto
            -28 -9 -60 -11 -41 -5 rrcurveto
            -21 vlineto
            52 -4 4 -4 1 -40 rrcurveto
            -27 -102 -36 102 -92 vlineto
            7 -18 -23 3 -11 hhcurveto
            -103 -89 -82 -98 return
          </CharString>
          <CharString index="231">
            28 594 28 return
          </CharString>
          <CharString index="232">
            -149 198 55 hstem
            57 243 vstem
            300 253 rmoveto
            -229 hlineto
            -14 -55 rlineto
            228 hlineto
            endchar
          </CharString>
          <CharString index="233">
            -47 -30 -57 -38 -53 -34 12 103 callsubr
          </CharString>
          <CharString index="234">
            -26 147 callgsubr
            return
          </CharString>
          <CharString index="235">
            7 64 228 callsubr
            return
          </CharString>
          <CharString index="236">
            -42 -31 -53 -67 62 -25 return
          </CharString>
          <CharString index="237">
            162 callsubr
            277 vlineto
            -46 -15 return
          </CharString>
          <CharString index="238">
            -26 rlineto
            70 21 44 38 42 vvcurveto
            22 -11 19 -28 28 vhcurveto
            return
          </CharString>
          <CharString index="239">
            -18 -18 -16 257 callgsubr
            return
          </CharString>
          <CharString index="240">
            50 15 51 14 46 7 rrcurveto
            return
          </CharString>
          <CharString index="241">
            33 25 -33 29 -35 32 -29 rrcurveto
            endchar
          </CharString>
          <CharString index="242">
            41 28 -19 -21 24 vhcurveto
            9 -9 10 0 8 6 8 6 7 9 4 7 4 11 0 9 -8 11 rrcurveto
            15 -11 -40 26 -46 hhcurveto
            -28 -44 -19 -26 -31 hvcurveto
            -62 -49 -21 -60 -66 vvcurveto
            -13 0 return
          </CharString>
          <CharString index="243">
            rlineto
            -184 hlineto
            -27 -180 rlineto
            5 16 22 6 31 hhcurveto
            60 34 -35 return
          </CharString>
          <CharString index="244">
            -2 166 callgsubr
            -24 return
          </CharString>
          <CharString index="245">
            rmoveto
            -3 14 -28 39 -12 2 -46 -30 return
          </CharString>
          <CharString index="246">
            502 -12 61 -49 72 559 34 return
          </CharString>
          <CharString index="247">
            136 0 50 615 -20 hstem
            44 556 vstem
            600 hmoveto
            24 vlineto
            -261 641 -27 -9 -268 -632 rlineto
            -24 vlineto
            454 50 rmoveto
            -391 hlineto
            196 489 rlineto
            endchar
          </CharString>
          <CharString index="248">
            115 callgsubr
            -38 vhcurveto
            endchar
          </CharString>
          <CharString index="249">
            23 39 22 39 -23 42 -22 40 -17 rrcurveto
            endchar
          </CharString>
          <CharString index="250">
            -9 23 -14 18 -18 13 rrcurveto
            13 -18 -26 8 -30 hhcurveto
            -56 -13 -66 -36 -29 -21 rrcurveto
            -21 -14 -10 -13 -16 vvcurveto
            -21 30 -21 16 15 8 9 15 4 vhcurveto
            9 30 7 21 12 13 rrcurveto
            return
          </CharString>
          <CharString index="251">
            rmoveto
            -9 23 callgsubr
            25 -56 rrcurveto
            return
          </CharString>
          <CharString index="252">
            24 callsubr
            27 -52 25 329 callsubr
            return
          </CharString>
          <CharString index="253">
            -20 -68 -23 32 callgsubr
            return
          </CharString>
          <CharString index="254">
            rmoveto
            20 261 callsubr
            return
          </CharString>
          <CharString index="255">
            231 -15 55 582 28 return
          </CharString>
          <CharString index="256">
            -26 -11 5 -15 hhcurveto
            return
          </CharString>
          <CharString index="257">
            20 14 23 26 17 27 rrcurveto
            39 26 22 28 36 hhcurveto
            16 hlineto
            26 10 12 18 19 -16 15 -29 -43 -33 -44 -28 -18 hvcurveto
            -21 -32 -27 -45 -23 -23 -24 -23 -22 -5 -29 -1 rrcurveto
            return
          </CharString>
          <CharString index="258">
            -23 306 callgsubr
            254 callgsubr
            return
          </CharString>
          <CharString index="259">
            -221 rmoveto
            -20 7 -19 11 16 vvcurveto
            18 14 11 501 callgsubr
            return
          </CharString>
          <CharString index="260">
            rmoveto
            -25 -22 -22 475 callsubr
            25 27 21 22 26 28 -21 22 -27 hvcurveto
            -190 -1 4 callsubr
            endchar
          </CharString>
          <CharString index="261">
            552 callsubr
            -69 -24 hvcurveto
            26 -14 rlineto
            32 14 14 14 240 callgsubr
            return
          </CharString>
          <CharString index="262">
            rmoveto
            -25 -22 -21 475 callsubr
            25 27 21 22 26 28 244 callgsubr
            -190 hmoveto
            -27 callgsubr
            endchar
          </CharString>
          <CharString index="263">
            -25 163 callsubr
          </CharString>
          <CharString index="264">
            -6 -8 16 hvcurveto
            return
          </CharString>
          <CharString index="265">
            226 callgsubr
            -5 23 -19 -27 vvcurveto
            -30 -27 -21 -38 -15 vhcurveto
            9 -25 rlineto
            58 16 53 32 65 vvcurveto
            53 -45 34 -33 vhcurveto
            endchar
          </CharString>
          <CharString index="266">
            -13 28 20 -9 22 hhcurveto
            27 34 18 67 21 hvcurveto
            -25 14 rlineto
            return
          </CharString>
          <CharString index="267">
            31 17 73 23 hvcurveto
            -25 14 rlineto
            -29 -14 -12 -16 -18 hhcurveto
            -16 return
          </CharString>
          <CharString index="268">
            6 7 10 428 callsubr
            -23 -43 -46 return
          </CharString>
          <CharString index="269">
            rmoveto
            23 vlineto
            -54 6 -11 4 49 vvcurveto
            return
          </CharString>
          <CharString index="270">
            398 callgsubr
            -23 -11 vhcurveto
            endchar
          </CharString>
          <CharString index="271">
            256 11 -21 446 28 return
          </CharString>
          <CharString index="272">
            132 -12 46 372 43 return
          </CharString>
          <CharString index="273">
            25 vvcurveto
            25 21 15 32 return
          </CharString>
          <CharString index="274">
            27 31 48 35 vvcurveto
            17 -9 18 -12 -11 -17 -10 -16 -11 vhcurveto
            -4 -6 -1 -7 4 -7 rrcurveto
            2 -7 3 -11 -9 vvcurveto
            -21 -17 -20 -28 -29 -36 14 17 -34 vhcurveto
            return
          </CharString>
          <CharString index="275">
            210 -15 35 254 27 328 36 return
          </CharString>
          <CharString index="276">
            496 callsubr
            19 64 return
          </CharString>
          <CharString index="277">
            -12 4 -11 14 -13 rrcurveto
            -12 13 41 -22 46 hhcurveto
            72 190 74 162 73 -51 62 -88 17 hvcurveto
            2 vlineto
            hintmask 11100000
            29 20 24 18 15 16 rrcurveto
            19 19 return
          </CharString>
          <CharString index="278">
            474 338 rmoveto
            285 callsubr
            -21 hlineto
            -13 -11 -6 -4 -20 hhcurveto
            -298 hlineto
            -19 -9 2 15 -11 hvcurveto
            -21 hlineto
            -1 -36 -5 -51 -3 -58 rrcurveto
            return
          </CharString>
          <CharString index="279">
            256 callgsubr
            -38 23 -28 452 callgsubr
            -10 6 -6 2 528 callgsubr
            211 callgsubr
          </CharString>
          <CharString index="280">
            -30 524 callsubr
            -14 rlineto
            31 14 15 15 13 hhcurveto
            13 9 157 callsubr
            return
          </CharString>
          <CharString index="281">
            27 21 23 25 return
          </CharString>
          <CharString index="282">
            -83 -38 88 hlineto
            1 -15 2 -18 -26 vvcurveto
            -41 -8 -57 -34 -37 vhcurveto
            -17 -20 -21 -22 -9 -16 rrcurveto
            -29 -18 17 -19 13 hhcurveto
            6 3 4 8 3 hvcurveto
            35 return
          </CharString>
          <CharString index="283">
            rmoveto
            30 21 21 31 29 -21 23 -30 -28 -22 -23 -29 -32 22 -20 28 hvcurveto
            endchar
          </CharString>
          <CharString index="284">
            28 307 26 hstem
            44 53 62 29 65 59 vstem
            188 return
          </CharString>
          <CharString index="285">
            22 hvcurveto
            -23 13 rlineto
            -25 -14 -12 -12 -17 hhcurveto
            -15 -14 5 return
          </CharString>
          <CharString index="286" raw="1">
            78f7021d 0b  
          </CharString>
          <CharString index="287">
            51 35 49 37 50 rrcurveto
            endchar
          </CharString>
          <CharString index="288">
            6 86 callsubr
            return
          </CharString>
          <CharString index="289">
            -32 16 -26 rcurveline
            40 17 return
          </CharString>
          <CharString index="290">
            -8 394 callgsubr
            return
          </CharString>
          <CharString index="291">
            -78 -79 58 134 2 hvcurveto
            124 4 126 9 15 3 rrcurveto
            18 4 5 8 23 vvcurveto
            77 -1 -67 75 -86 hhcurveto
            -52 -1 -56 -30 -39 -45 rrcurveto
            return
          </CharString>
          <CharString index="292">
            rmoveto
            -23 197 callgsubr
          </CharString>
          <CharString index="293">
            rmoveto
            -3 8 -11 -16 callsubr
            return
          </CharString>
          <CharString index="294">
            20 -40 18 -16 -26 rcurveline
            43 -33 44 -33 39 return
          </CharString>
          <CharString index="295">
            -23 -46 hhcurveto
            -42 -31 18 48 return
          </CharString>
          <CharString index="296">
            85 341 85 158 79 return
          </CharString>
          <CharString index="297">
            361 callgsubr
            147 79 return
          </CharString>
          <CharString index="298">
            -249 rmoveto
            48 5 return
          </CharString>
          <CharString index="299">
            rmoveto
            31 128 callsubr
            -34 -26 -18 -17 -19 -15 8 -10 5 vhcurveto
            32 216 callgsubr
          </CharString>
          <CharString index="300">
            188 callgsubr
            41 407 callsubr
          </CharString>
          <CharString index="301">
            -27 hvcurveto
            -71 35 -59 33 74 vvcurveto
            51 34 52 59 vhcurveto
            hintmask 11100100
            9 -583 rmoveto
            -63 -59 51 92 55 34 50 48 32 hvcurveto
            77 -39 71 -43 return
          </CharString>
          <CharString index="302">
            21 -25 -28 -18 -21 -26 -26 18 -18 28 hvcurveto
            -35 146 rmoveto
            -3 8 -9 2 -55 -8 -12 -5 rlinecurve
            -12 470 callgsubr
            return
          </CharString>
          <CharString index="303">
            -105 -162 104 hstem
            149 103 vstem
            201 -162 47 callsubr
          </CharString>
          <CharString index="304">
            17 hhcurveto
            28 27 -22 -10 17 hvcurveto
            16 -9 22 33 16 vvcurveto
            23 -34 21 -24 -23 -37 -8 -47 -53 vhcurveto
            -50 -44 -30 -54 -15 -84 rrcurveto
            endchar
          </CharString>
          <CharString index="305">
            rmoveto
            32 13 14 16 17 hhcurveto
            15 13 -5 -10 17 hvcurveto
            return
          </CharString>
          <CharString index="306">
            -19 -68 -23 298 callsubr
            14 hhcurveto
            return
          </CharString>
          <CharString index="307">
            24 15 12 11 6 6 rrcurveto
            13 14 6 18 16 vvcurveto
            return
          </CharString>
          <CharString index="308">
            29 37 34 25 25 28 -28 32 -31 return
          </CharString>
          <CharString index="309">
            -26 66 callgsubr
            26 27 return
          </CharString>
          <CharString index="310">
            -15 259 callsubr
            return
          </CharString>
          <CharString index="311">
            rmoveto
            29 31 -22 -43 -28 -14 -24 return
          </CharString>
          <CharString index="312">
            19 18 26 26 -19 21 return
          </CharString>
          <CharString index="313">
            12 191 callsubr
            return
          </CharString>
          <CharString index="314">
            11 157 callsubr
            return
          </CharString>
          <CharString index="315">
            59 -10 59 -10 59 return
          </CharString>
          <CharString index="316">
            -22 24 vhcurveto
            9 -7 9 -1 8 6 8 7 7 9 3 6 4 9 1 11 -8 11 rrcurveto
            17 -12 -36 20 -41 hhcurveto
            -28 -42 -16 -26 return
          </CharString>
          <CharString index="317">
            36 27 20 34 36 vvcurveto
            49 -40 46 -80 -16 -31 -8 -9 -25 vhcurveto
            endchar
          </CharString>
          <CharString index="318">
            517 51 rmoveto
            -32 3 rlineto
            -37 4 -7 5 52 vvcurveto
            597 vlineto
            -37 -13 -67 -15 -52 -7 rrcurveto
            -24 vlineto
            72 -5 5 -3 -66 vvcurveto
            return
          </CharString>
          <CharString index="319">
            32 100 hvcurveto
            -32 hlineto
            -51 -8 -28 -27 -45 hhcurveto
            -44 -28 27 51 -7 hvcurveto
            return
          </CharString>
          <CharString index="320">
            -4 -257 10 21 -21 235 52 359 50 hstemhm
            71 78 -75 77 return
          </CharString>
          <CharString index="321">
            hhcurveto
            28 33 19 59 24 hvcurveto
            -24 13 rlineto
            -26 -16 -17 -11 -16 hhcurveto
            -16 return
          </CharString>
          <CharString index="322">
            hhcurveto
            19 453 callsubr
            -38 -34 -4 -31 hvcurveto
            endchar
          </CharString>
          <CharString index="323">
            -4 rlinecurve
            -4 -11 32 -33 58 -57 53 -54 rlinecurve
            endchar
          </CharString>
          <CharString index="324">
            rmoveto
            -22 374 callsubr
            return
          </CharString>
          <CharString index="325">
            rmoveto
            -4 12 -13 2 -60 -7 return
          </CharString>
          <CharString index="326">
            1 -53 -9 -9 -4 return
          </CharString>
          <CharString index="327">
            60 callgsubr
            -16 callgsubr
            return
          </CharString>
          <CharString index="328">
            282 rmoveto
            -32 -12 -30 -26 -55 hhcurveto
            -54 -30 27 31 -10 hvcurveto
            -29 -2 rlineto
            -64 5 32 -49 86 hhcurveto
            73 45 44 68 7 hvcurveto
            return
          </CharString>
          <CharString index="329">
            -33 rmoveto
            97 26 -124 -88 -20 -1 -24 -3 -22 hvcurveto
            -16 -21 -34 -12 -35 hhcurveto
            -84 -50 73 88 59 28 86 77 hvcurveto
            endchar
          </CharString>
          <CharString index="330">
            228 callgsubr
            53 -42 31 -33 112 callgsubr
          </CharString>
          <CharString index="331">
            169 -23 15 -63 -80 -62 -70 -33 -34 rlinecurve
            33 return
          </CharString>
          <CharString index="332">
            46 222 32 hstem
            32 63 82 30 vstem
            297 return
          </CharString>
          <CharString index="333">
            39 103 26 hstem
            35 70 134 66 vstem
            114 return
          </CharString>
          <CharString index="334">
            30 rmoveto
            -24 11 -26 454 callsubr
            20 15 33 return
          </CharString>
          <CharString index="335">
            277 callsubr
            30 return
          </CharString>
          <CharString index="336">
            437 callgsubr
            -16 -13 return
          </CharString>
          <CharString index="337">
            -39 rmoveto
            91 42 -82 -83 -66 -24 -84 -78 -82 -51 98 120 26 1 24 5 19 hvcurveto
            13 24 34 15 38 hhcurveto
            endchar
          </CharString>
          <CharString index="338">
            277 130 callsubr
            return
          </CharString>
          <CharString index="339">
            370 callsubr
            31 21 33 28 27 25 27 -24 return
          </CharString>
          <CharString index="340">
            24 156 33 81 return
          </CharString>
          <CharString index="341">
            16 37 21 5 18 return
          </CharString>
          <CharString index="342">
            33 395 33 return
          </CharString>
          <CharString index="343">
            364 callsubr
            -36 146 rmoveto
            -3 8 -8 2 -55 -8 return
          </CharString>
          <CharString index="344">
            -6 -68 vvcurveto
            -84 vlineto
            -83 -41 13 -30 70 34 rlineto
            -67 vlineto
            -83 -41 13 -29 70 34 rlineto
            -136 vlineto
            -1 -16 -1 -10 return
          </CharString>
          <CharString index="345">
            266 callsubr
            endchar
          </CharString>
          <CharString index="346">
            -15 8 -10 5 32 88 callsubr
          </CharString>
          <CharString index="347">
            -5 514 callsubr
            return
          </CharString>
          <CharString index="348">
            rmoveto
            -111 hlineto
            39 57 32 44 return
          </CharString>
          <CharString index="349">
            -39 -28 -37 -29 -38 rrcurveto
            endchar
          </CharString>
          <CharString index="350">
            7 10 -20 hvcurveto
            return
          </CharString>
          <CharString index="351">
            307 callsubr
            -15 501 callsubr
            return
          </CharString>
          <CharString index="352">
            -10 21 19 -12 20 hhcurveto
            22 30 18 66 22 hvcurveto
            -21 440 callgsubr
            return
          </CharString>
          <CharString index="353">
            -17 -9 -21 -14 -10 -9 rrcurveto
            -12 -12 -15 -16 -28 vvcurveto
            -61 56 -36 68 60 72 34 70 53 -40 25 -37 18 vhcurveto
            return
          </CharString>
          <CharString index="354">
            -11 22 18 -11 21 hhcurveto
            21 30 19 64 23 542 callgsubr
            -14 -13 7 10 -20 hvcurveto
            return
          </CharString>
          <CharString index="355">
            -11 22 169 callsubr
            22 hvcurveto
            -21 17 rlineto
            -31 -17 -13 -13 -15 hhcurveto
            -13 -14 6 10 -20 hvcurveto
            return
          </CharString>
          <CharString index="356">
            -37 -31 -27 -22 -22 vhcurveto
            10 -27 10 -1 rlineto
            17 13 14 13 return
          </CharString>
          <CharString index="357">
            -3 8 -6 5 hvcurveto
            10 -18 -24 7 -30 -4 -3 0 -3 hhcurveto
            return
          </CharString>
          <CharString index="358">
            30 44 30 15 27 26 15 hvcurveto
            65 -27 32 -19 -40 vvcurveto
            -39 return
          </CharString>
          <CharString index="359">
            14 14 259 callgsubr
            return
          </CharString>
          <CharString index="360">
            -134 0 26 321 102 -76 76 3 -20 return
          </CharString>
          <CharString index="361">
            rmoveto
            120 vlineto
            47 -6 21 -35 13 -37 24 return
          </CharString>
          <CharString index="362">
            147 callsubr
            -21 45 -60 return
          </CharString>
          <CharString index="363">
            -28 -10 -31 -1 rrcurveto
            221 vlineto
            17 -2 15 return
          </CharString>
          <CharString index="364">
            392 callsubr
            -23 hvcurveto
            24 -14 rlineto
            30 return
          </CharString>
          <CharString index="365">
            rmoveto
            260 callgsubr
            -28 return
          </CharString>
          <CharString index="366">
            hhcurveto
            -13 -14 243 callsubr
            return
          </CharString>
          <CharString index="367">
            rmoveto
            -3 9 -10 1 -59 -8 return
          </CharString>
          <CharString index="368">
            40 357 callsubr
            return
          </CharString>
          <CharString index="369">
            -10 -20 vvcurveto
            -18 -19 -10 return
          </CharString>
          <CharString index="370">
            hlineto
            30 51 35 49 return
          </CharString>
          <CharString index="371">
            hlineto
            -29 -56 -32 -54 return
          </CharString>
          <CharString index="372">
            -24 -11 vhcurveto
            endchar
          </CharString>
          <CharString index="373">
            49 rrcurveto
            -27 hlineto
            -31 -51 -35 -49 -37 -50 457 callgsubr
            33 -30 rrcurveto
            return
          </CharString>
          <CharString index="374">
            367 callgsubr
            -45 -5 rrcurveto
            -23 vlineto
            30 -2 rlineto
            return
          </CharString>
          <CharString index="375">
            486 hmoveto
            26 vlineto
            -42 3 -18 17 -34 54 -30 50 -12 23 -16 23 -21 29 -29 16 -18 5 rrcurveto
            4 vlineto
            return
          </CharString>
          <CharString index="376">
            -19 270 callsubr
          </CharString>
          <CharString index="377">
            -24 -10 vhcurveto
            endchar
          </CharString>
          <CharString index="378">
            -22 -38 -27 -16 -15 rrcurveto
            -22 -21 -23 -28 -46 vvcurveto
            -107 85 -62 107 85 113 64 117 87 -63 48 return
          </CharString>
          <CharString index="379">
            vvcurveto
            105 39 100 59 50 vhcurveto
            -16 20 rlineto
            -101 -61 -48 -106 -107 vvcurveto
            -109 46 -106 103 -61 vhcurveto
            endchar
          </CharString>
          <CharString index="380">
            34 -54 35 -53 34 301 callsubr
            -7 rcurveline
            return
          </CharString>
          <CharString index="381">
            186 -186 50 136 -47 callgsubr
            return
          </CharString>
          <CharString index="382">
            -6 callsubr
            endchar
          </CharString>
          <CharString index="383">
            421 callgsubr
            -29 hvcurveto
            endchar
          </CharString>
          <CharString index="384">
            26 331 callgsubr
            return
          </CharString>
          <CharString index="385">
            30 -30 33 -30 rrcurveto
            return
          </CharString>
          <CharString index="386">
            vhcurveto
            -5 -8 -1 -7 4 -7 rrcurveto
            3 -8 4 -12 -12 vvcurveto
            -28 -21 -18 -37 -36 -43 19 19 -41 vhcurveto
            return
          </CharString>
          <CharString index="387">
            rmoveto
            24 377 callsubr
            -24 -28 return
          </CharString>
          <CharString index="388">
            258 callgsubr
            -27 return
          </CharString>
          <CharString index="389">
            91 hstem
            48 89 126 89 vstem
            309 return
          </CharString>
          <CharString index="390">
            rmoveto
            55 -218 -55 vlineto
            endchar
          </CharString>
          <CharString index="391">
            14 -30 -14 5 -18 hhcurveto
            endchar
          </CharString>
          <CharString index="392">
            -4 44 -5 69 30 vvcurveto
            return
          </CharString>
          <CharString index="393">
            -68 -23 526 callgsubr
            return
          </CharString>
          <CharString index="394">
            rmoveto
            -43 33 -43 33 -39 return
          </CharString>
          <CharString index="395">
            -26 32 -7 vhcurveto
            endchar
          </CharString>
          <CharString index="396">
            364 callgsubr
            24 329 callsubr
            return
          </CharString>
          <CharString index="397">
            24 callsubr
            28 -52 24 329 callsubr
            return
          </CharString>
          <CharString index="398">
            -6 -44 -11 -44 -18 rrcurveto
            -137 -57 -115 -124 -166 vvcurveto
            -163 98 -73 97 115 return
          </CharString>
          <CharString index="399">
            rmoveto
            -43 -11 -28 188 callsubr
            -11 hvcurveto
            return
          </CharString>
          <CharString index="400">
            41 162 28 hstem
            38 66 128 69 vstem
            172 return
          </CharString>
          <CharString index="401">
            rmoveto
            -93 -40 466 callsubr
            88 69 return
          </CharString>
          <CharString index="402">
            23 41 -24 43 -20 40 -17 rrcurveto
            return
          </CharString>
          <CharString index="403">
            rmoveto
            -100 52 263 callgsubr
            return
          </CharString>
          <CharString index="404">
            51 hstem
            211 70 vstem
            284 return
          </CharString>
          <CharString index="405">
            hvcurveto
            24 494 callsubr
            return
          </CharString>
          <CharString index="406">
            112 471 callgsubr
            return
          </CharString>
          <CharString index="407">
            435 callsubr
            53 -42 return
          </CharString>
          <CharString index="408">
            -13 -4 -27 -39 -4 -14 2 return
          </CharString>
          <CharString index="409">
            16 9 20 26 9 16 rrcurveto
            return
          </CharString>
          <CharString index="410">
            -20 182 callgsubr
            return
          </CharString>
          <CharString index="411">
            17 41 23 39 22 return
          </CharString>
          <CharString index="412">
            rmoveto
            -38 50 -34 return
          </CharString>
          <CharString index="413">
            540 532 rmoveto
            -32 23 -341 -562 31 -23 rlineto
            -11 570 rmoveto
            -92 -41 -88 -69 return
          </CharString>
          <CharString index="414">
            -14 24 20 -10 22 hhcurveto
            25 160 callsubr
            return
          </CharString>
          <CharString index="415">
            -27 rrcurveto
            -54 -42 -39 -65 -77 vvcurveto
            -103 80 -96 119 -3 vhcurveto
            -96 35 98 vlineto
            48 8 60 return
          </CharString>
          <CharString index="416">
            552 callsubr
            -70 -23 hvcurveto
            25 -13 rlineto
            31 14 14 14 14 hhcurveto
            12 10 -5 -9 16 hvcurveto
            return
          </CharString>
          <CharString index="417">
            -28 rlineto
            11 hlineto
            23 14 19 13 17 hhcurveto
            19 324 callsubr
            -5 -30 hvcurveto
            endchar
          </CharString>
          <CharString index="418">
            -59 -50 vhcurveto
            15 -20 rlineto
            102 61 47 106 108 vvcurveto
            108 -45 106 -104 61 vhcurveto
            endchar
          </CharString>
          <CharString index="419">
            263 callsubr
            38 50 rrcurveto
            endchar
          </CharString>
          <CharString index="420">
            26 vlineto
            -64 6 return
          </CharString>
          <CharString index="421">
            -22 -30 -18 286 callsubr
            31 14 14 15 14 191 callgsubr
            return
          </CharString>
          <CharString index="422">
            rmoveto
            30 -26 17 -20 -33 vvcurveto
            -48 -80 -47 -32 -27 vhcurveto
            -34 -28 -14 -26 -35 vvcurveto
            -82 77 return
          </CharString>
          <CharString index="423">
            -105 548 55 hstem
            91 219 vstem
            310 548 243 callgsubr
          </CharString>
          <CharString index="424">
            204 callsubr
            -16 -11 hvcurveto
            -50 return
          </CharString>
          <CharString index="425">
            505 callgsubr
            -56 return
          </CharString>
          <CharString index="426">
            358 callgsubr
            455 callgsubr
            return
          </CharString>
          <CharString index="427">
            -17 -31 472 callsubr
            47 14 return
          </CharString>
          <CharString index="428">
            17 rlineto
            -31 -17 -13 -14 -15 hhcurveto
            -13 return
          </CharString>
          <CharString index="429">
            51 -26 83 callsubr
            return
          </CharString>
          <CharString index="430">
            vlineto
            473 callgsubr
            return
          </CharString>
          <CharString index="431">
            23 -13 -31 -31 -36 -35 return
          </CharString>
          <CharString index="432">
            -11 22 452 callsubr
            return
          </CharString>
          <CharString index="433">
            hstemhm
            39 88 -70 84 return
          </CharString>
          <CharString index="434">
            hhcurveto
            -44 -28 26 52 return
          </CharString>
          <CharString index="435">
            hstemhm
            101 79 188 return
          </CharString>
          <CharString index="436">
            -55 27 -56 rrcurveto
            return
          </CharString>
          <CharString index="437">
            55 rrcurveto
            -25 hlineto
            return
          </CharString>
          <CharString index="438">
            -6 vhcurveto
            -27 vlineto
            return
          </CharString>
          <CharString index="439">
            22 10 29 29 vvcurveto
            hintmask 11011000
            81 -68 67 -95 vhcurveto
            -10 -32 rmoveto
            46 52 -37 -84 -60 return
          </CharString>
          <CharString index="440">
            63 306 callgsubr
            -53 callsubr
            hstemhm
            128 85 return
          </CharString>
          <CharString index="441">
            rmoveto
            -20 82 callgsubr
            24 208 callgsubr
            -24 -23 -16 return
          </CharString>
          <CharString index="442">
            rmoveto
            28 22 23 27 30 -22 23 -27 -28 -24 -23 -30 -27 24 -23 27 hvcurveto
            endchar
          </CharString>
          <CharString index="443">
            rmoveto
            32 24 23 35 32 -24 25 -32 -32 -24 -25 -32 -35 24 -23 32 hvcurveto
            endchar
          </CharString>
          <CharString index="444">
            55 116 57 116 56 115 rlinecurve
            endchar
          </CharString>
          <CharString index="445">
            52 33 104 vhcurveto
            endchar
          </CharString>
          <CharString index="446">
            65 173 70 return
          </CharString>
          <CharString index="447">
            -12 rmoveto
            34 24 24 36 34 -24 26 -34 -33 -25 -26 -34 -36 25 -24 33 hvcurveto
            return
          </CharString>
          <CharString index="448">
            rmoveto
            -10 59 -9 59 -10 81 callsubr
            return
          </CharString>
          <CharString index="449">
            28 209 43 364 61 -40 -20 hstemhm
            -51 53 18 145 327 181 return
          </CharString>
          <CharString index="450">
            18 66 23 hvcurveto
            -21 17 rlineto
            -31 -17 546 callgsubr
            return
          </CharString>
          <CharString index="451">
            444 callgsubr
            93 callgsubr
            return
          </CharString>
          <CharString index="452">
            rmoveto
            2 -1 486 235 rlineto
            2 vlineto
            -486 230 rlineto
            -1 hlineto
            endchar
          </CharString>
          <CharString index="453">
            62 3 8 -4 14 -29 41 -11 3 rlinecurve
            -47 -34 -38 -35 -48 -34 rrcurveto
            endchar
          </CharString>
          <CharString index="454">
            rmoveto
            -25 -31 -19 -63 492 callgsubr
            return
          </CharString>
          <CharString index="455">
            10 -14 2 -54 -10 -9 -4 rlinecurve
            -4 -15 -27 return
          </CharString>
          <CharString index="456">
            -43 -40 -8 -87 -51 -51 -10 86 42 42 10 return
          </CharString>
          <CharString index="457">
            rmoveto
            19 207 callgsubr
            -21 42 -56 return
          </CharString>
          <CharString index="458">
            261 0 -24 callgsubr
            hstem
            return
          </CharString>
          <CharString index="459">
            -16 -13 -13 203 callsubr
            return
          </CharString>
          <CharString index="460">
            289 callgsubr
            -10 -8 -5 return
          </CharString>
          <CharString index="461">
            8 -10 5 vhcurveto
            32 1 21 return
          </CharString>
          <CharString index="462">
            -34 -42 -31 -53 -66 62 -26 return
          </CharString>
          <CharString index="463">
            231 -14 55 581 28 return
          </CharString>
          <CharString index="464">
            57 361 callsubr
            return
          </CharString>
          <CharString index="465">
            7 -7 8 -2 hvcurveto
            return
          </CharString>
          <CharString index="466">
            23 hvcurveto
            -22 17 rlineto
            return
          </CharString>
          <CharString index="467">
            -13 4 -17 hhcurveto
            return
          </CharString>
          <CharString index="468">
            24 59 vvcurveto
            28 return
          </CharString>
          <CharString index="469">
            rmoveto
            hintmask 11100000
            250 callgsubr
            return
          </CharString>
          <CharString index="470">
            rmoveto
            381 callsubr
            return
          </CharString>
          <CharString index="471">
            280 callsubr
            431 callgsubr
            28 hvcurveto
            return
          </CharString>
          <CharString index="472">
            7 hvcurveto
            15 -22 -37 11 -43 hhcurveto
            -6 -4 0 -1 -7 hvcurveto
            80 -35 -84 vlineto
            return
          </CharString>
          <CharString index="473">
            rmoveto
            -25 -22 -21 -28 -26 22 -23 25 27 21 23 26 28 244 callgsubr
            return
          </CharString>
          <CharString index="474">
            -19 hhcurveto
            -18 -15 6 10 -22 hvcurveto
            hintmask 11101110
            14 -30 -13 5 -19 hhcurveto
            endchar
          </CharString>
          <CharString index="475">
            -31 17 -23 -23 -35 -7 -41 -46 vhcurveto
            -50 -43 -28 -55 -14 -73 rrcurveto
            endchar
          </CharString>
          <CharString index="476">
            rmoveto
            25 42 54 24 54 vvcurveto
            28 return
          </CharString>
          <CharString index="477">
            -39 -37 379 callgsubr
            return
          </CharString>
          <CharString index="478">
            15 vvcurveto
            19 14 10 30 3 vhcurveto
            return
          </CharString>
          <CharString index="479">
            26 callgsubr
            3 return
          </CharString>
          <CharString index="480">
            -20 hhcurveto
            -17 -16 6 10 -21 hvcurveto
            return
          </CharString>
          <CharString index="481">
            -30 356 callgsubr
            return
          </CharString>
          <CharString index="482">
            492 callsubr
            -33 -54 return
          </CharString>
          <CharString index="483">
            51 hstem
            41 260 vstem
            297 return
          </CharString>
          <CharString index="484">
            19 18 27 25 -19 21 return
          </CharString>
          <CharString index="485">
            -189 150 rmoveto
            27 return
          </CharString>
          <CharString index="486">
            -54 93 callgsubr
            return
          </CharString>
          <CharString index="487">
            549 callsubr
            63 -26 return
          </CharString>
          <CharString index="488">
            126 460 callsubr
            -42 -100 return
          </CharString>
          <CharString index="489">
            -47 callgsubr
            hstemhm
            -30 53 -3 145 327 181 return
          </CharString>
          <CharString index="490">
            33 23 23 35 32 -23 25 -33 -32 -23 -25 -32 -35 23 -23 32 hvcurveto
            return
          </CharString>
          <CharString index="491">
            27 rlinecurve
            -210 -251 rmoveto
            109 28 -94 -75 -96 -49 -35 -49 -69 return
          </CharString>
          <CharString index="492">
            -18 vhcurveto
            12 -27 rlineto
            70 22 44 34 45 vvcurveto
            23 -11 19 -27 27 vhcurveto
            return
          </CharString>
          <CharString index="493">
            rmoveto
            -93 167 93 169 -22 15 -63 -80 -62 -70 -34 -34 rlinecurve
            34 return
          </CharString>
          <CharString index="494">
            2 -54 -11 -8 -4 -3 -8 rcurveline
            26 -37 48 -64 43 -59 rrcurveto
            endchar
          </CharString>
          <CharString index="495">
            28 56 rmoveto
            22 36 48 24 50 vvcurveto
            25 return
          </CharString>
          <CharString index="496">
            33 0 34 588 28 hstem
            128 85 return
          </CharString>
          <CharString index="497">
            467 callsubr
            19 hhcurveto
            return
          </CharString>
          <CharString index="498">
            72 124 181 return
          </CharString>
          <CharString index="499">
            rmoveto
            -25 -33 -20 -68 return
          </CharString>
          <CharString index="500">
            hlineto
            -52 -8 -28 -26 return
          </CharString>
          <CharString index="501">
            452 callsubr
            22 return
          </CharString>
          <CharString index="502">
            27 vlineto
            -66 5 -6 return
          </CharString>
          <CharString index="503">
            -4 -2 -8 rcurveline
            return
          </CharString>
          <CharString index="504">
            -25 vvcurveto
            -25 -26 return
          </CharString>
          <CharString index="505">
            110 callgsubr
            53 -42 31 return
          </CharString>
          <CharString index="506">
            28 396 29 397 28 hstemhm
            125 75 9 74 vstemhm
            283 return
          </CharString>
          <CharString index="507">
            392 callgsubr
            15 14 16 19 517 callsubr
            return
          </CharString>
          <CharString index="508">
            457 callgsubr
            34 -30 rrcurveto
            return
          </CharString>
          <CharString index="509">
            -8 27 378 36.5 62.5 36 hstem
            return
          </CharString>
          <CharString index="510">
            -9 -2 28 382 35 0 -20 231 23 35 -20 hstemhm
            87 78 return
          </CharString>
          <CharString index="511">
            53 -16 30 -9 4 -47 -4 -12 -4 -3 -11 rcurveline
            105 -117 rlineto
            return
          </CharString>
          <CharString index="512">
            rmoveto
            -43 33 -43 32 -39 555 callgsubr
            -38 -41 -45 -33 -43 -33 return
          </CharString>
          <CharString index="513">
            -39 -1 -29 -21 -36 hhcurveto
            endchar
          </CharString>
          <CharString index="514">
            -25 362 callgsubr
          </CharString>
          <CharString index="515">
            94 311 94 return
          </CharString>
          <CharString index="516">
            416 callsubr
            54 32 100 hvcurveto
            -32 hlineto
            return
          </CharString>
          <CharString index="517">
            8 444 callsubr
            return
          </CharString>
          <CharString index="518">
            -5 vhcurveto
            -91 34 93 vlineto
            49 9 56 34 36 50 rrcurveto
            -175 return
          </CharString>
          <CharString index="519">
            -50 -9 -55 rrcurveto
            29 hlineto
            66 24 6 9 66 hhcurveto
            216 hlineto
            return
          </CharString>
          <CharString index="520">
            -25 rcurveline
            39 189 callgsubr
            42 -22 39 -17 rrcurveto
            return
          </CharString>
          <CharString index="521">
            27 vlineto
            -76 4 -7 12 52 vvcurveto
            55 117 37 -117 62 return
          </CharString>
          <CharString index="522">
            -55 rrcurveto
            -23 374 vlineto
            12 45 10 44 13 42 rrcurveto
            endchar
          </CharString>
          <CharString index="523">
            296 callsubr
            59 return
          </CharString>
          <CharString index="524">
            241 callsubr
            38 return
          </CharString>
          <CharString index="525">
            hstemhm
            111 38 298 37 return
          </CharString>
          <CharString index="526">
            12 489 callsubr
            return
          </CharString>
          <CharString index="527">
            hstemhm
            128 85 202 29 return
          </CharString>
          <CharString index="528">
            386 rmoveto
            -72 -47 -46 -51 return
          </CharString>
          <CharString index="529">
            hhcurveto
            17 11 -6 -7 16 hvcurveto
            return
          </CharString>
          <CharString index="530">
            hstem
            36 187 vstem
            223 return
          </CharString>
          <CharString index="531">
            522 callsubr
            -27 -32 return
          </CharString>
          <CharString index="532">
            25 -19 rcurveline
            33 31 30 29 return
          </CharString>
          <CharString index="533">
            -8 522 callgsubr
            61 return
          </CharString>
          <CharString index="534">
            hvcurveto
            -25 305 callgsubr
            return
          </CharString>
          <CharString index="535">
            21 -17 451 callsubr
            return
          </CharString>
          <CharString index="536">
            44 callgsubr
            hstem
            return
          </CharString>
          <CharString index="537">
            14 -26 -11 5 -16 hhcurveto
            return
          </CharString>
          <CharString index="538">
            33 351 32 12 33 return
          </CharString>
          <CharString index="539">
            44 callgsubr
            47 return
          </CharString>
          <CharString index="540">
            37 93 250 93 return
          </CharString>
          <CharString index="541">
            0 450 callsubr
            return
          </CharString>
          <CharString index="542">
            7 63 26 66 vvcurveto
            return
          </CharString>
          <CharString index="543">
            rmoveto
            -3 8 -10 return
          </CharString>
          <CharString index="544">
            -15 -25 vvcurveto
            -25 return
          </CharString>
          <CharString index="545">
            -20 21 -27 hvcurveto
            return
          </CharString>
          <CharString index="546">
            -62 -1 -54 -31 -44 -42 rrcurveto
            hintmask 1011111110000000
            -59 -56 -22 -77 return
          </CharString>
          <CharString index="547">
            5 4 63 7 vhcurveto
            27 -220 -27 vlineto
            65 -7 5 -4 return
          </CharString>
          <CharString index="548">
            148 -29 66 581.5 31.5 return
          </CharString>
          <CharString index="549">
            vvcurveto
            116 -84 13 -62 vhcurveto
            -28 vlineto
            72 -10 13 -37 -46 return
          </CharString>
          <CharString index="550">
            rmoveto
            -2 -7 -9 -1 -8 hhcurveto
            -18 -20 234 callsubr
            return
          </CharString>
          <CharString index="551">
            -7 7 76 callsubr
            return
          </CharString>
          <CharString index="552">
            436 callsubr
            543 callsubr
            return
          </CharString>
          <CharString index="553">
            18 41 23 39 21 40 -22 42 -22 39 -18 rrcurveto
            endchar
          </CharString>
          <CharString index="554">
            30 28 487 callgsubr
          </CharString>
          <CharString index="555">
            -20 265 callsubr
          </CharString>
          <CharString index="556">
            hstemhm
            112 79 return
          </CharString>
          <CharString index="557">
            26 372 39 return
          </CharString>
          <CharString index="558">
            10 -24 -29 -38 return
          </CharString>
          <CharString index="559">
            19 -11 20 hhcurveto
            return
          </CharString>
          <CharString index="560">
            24 -14 -32 -31 return
          </CharString>
          <CharString index="561">
            16 25 vvcurveto
            25 return
          </CharString>
          <CharString index="562">
            16 -9 -14 26 hvcurveto
            hintmask 10110011
            -24 44 44 -24 36 hhcurveto
            return
          </CharString>
          <CharString index="563">
            -45 rmoveto
            17 -63 5 -61 -61 vvcurveto
            -153 -31 -138 return
          </CharString>
          <CharString index="564">
            26 54 44 rrcurveto
            61 50 28 57 60 vvcurveto
            82 -65 87 return
          </CharString>
          <CharString index="565">
            vvcurveto
            25 21 15 33 4 8 10 15 19 -17 17 -27 return
          </CharString>
          <CharString index="566">
            42 -32 -62 -74 -68 -39 -92 -29 hvcurveto
            7 -29 rlineto
            5 return
          </CharString>
          <CharString index="567">
            172 -3 9 -12 3 -60 183 callsubr
            return
          </CharString>
          <CharString index="568">
            16 82 17 80 16 65 rrcurveto
            -11 -9 2 3 -14 hvcurveto
            return
          </CharString>
          <CharString index="569">
            hvcurveto
            -24 -15 -17 -37 -33 -21 14 27 1 vhcurveto
            18 1 return
          </CharString>
          <CharString index="570">
            -41 rrcurveto
            22 hlineto
            39 41 43 34 43 32 rrcurveto
            endchar
          </CharString>
          <CharString index="571">
            70 33 33 rlinecurve
            -33 33 -62 71 -63 79 rrcurveto
            endchar
          </CharString>
          <CharString index="572">
            -29 36 20 -7 hvcurveto
            -4 10 -2 10 15 vvcurveto
            endchar
          </CharString>
          <CharString index="573">
            -88 -69 429 callgsubr
            return
          </CharString>
          <CharString index="574">
            -29 rlineto
            12 hlineto
            23 16 18 14 return
          </CharString>
          <CharString index="575">
            432 callsubr
            97 hstemhm
            return
          </CharString>
          <CharString index="576">
            514 callsubr
            28 return
          </CharString>
          <CharString index="577">
            -26 448 callsubr
          </CharString>
          <CharString index="578">
            -79 35 -40 63 9 return
          </CharString>
          <CharString index="579">
            -16 vhcurveto
            10 -27 rlineto
            return
          </CharString>
          <CharString index="580">
            -4 8 -8 -15 vvcurveto
            return
          </CharString>
          <CharString index="581">
            79 196 79 return
          </CharString>
          <CharString index="582">
            -28 -26 22 -22 return
          </CharString>
          <CharString index="583">
            rrcurveto
            143 -15 518 callgsubr
            22 return
          </CharString>
          <CharString index="584">
            28 vstem
            119 710 rmoveto
            -77 -27 4 -14 15 return
          </CharString>
          <CharString index="585">
            -13 4 -47 -1 -9 -4 -10 -22 -32 -60 -16 -32 return
          </CharString>
          <CharString index="586">
            -100 -143 -24 rlinecurve
            5 -30 rlineto
            25 61 10 22 return
          </CharString>
          <CharString index="587">
            261 callgsubr
            30 19 64 23 hvcurveto
            return
          </CharString>
          <CharString index="588">
            -27 19 -14 vhcurveto
            -12 -39 -53 -63 hhcurveto
            -37 -22 19 return
          </CharString>
          <CharString index="589">
            350 callsubr
            -38 return
          </CharString>
          <CharString index="590">
            45 27 rlineto
            -51 vlineto
            45 16 72 9 17 3 rrcurveto
            return
          </CharString>
          <CharString index="591">
            421 callsubr
            -1 hvcurveto
            -42 32 -27 return
          </CharString>
          <CharString index="592">
            -10 -5 rlinecurve
            -5 -19 -27 -81 -15 -46 28 -8 rcurveline
            return
          </CharString>
          <CharString index="593">
            -31 -27 18 hvcurveto
            -22 -42 -9 -44 -47 vvcurveto
            endchar
          </CharString>
          <CharString index="594">
            21 7 28 hvcurveto
            13 27 27 9 24 hhcurveto
            endchar
          </CharString>
          <CharString index="595">
            rmoveto
            52 -224 -52 vlineto
            endchar
          </CharString>
          <CharString index="596">
            191 callsubr
            41 return
          </CharString>
          <CharString index="597">
            104 hstem
            38 101 vstem
            88 return
          </CharString>
          <CharString index="598">
            -9 107 callgsubr
            return
          </CharString>
          <CharString index="599">
            330 callsubr
            -29 -55 return
          </CharString>
          <CharString index="600">
            46 -58 -44 -30 -29 -25 return
          </CharString>
          <CharString index="601">
            -15 rlineto
            32 14 14 15 return
          </CharString>
          <CharString index="602">
            53 vvcurveto
            25 -20 40 -54 return
          </CharString>
          <CharString index="603">
            394 callsubr
            30 return
          </CharString>
          <CharString index="604">
            5 -16 hhcurveto
            -24 -32 -14 return
          </CharString>
          <CharString index="605">
            5 0 28 404 32 return
          </CharString>
          <CharString index="606">
            hstemhm
            524 callgsubr
            return
          </CharString>
          <CharString index="607">
            59 -20 58 hstemhm
            return
          </CharString>
          <CharString index="608">
            8 11 -22 hvcurveto
            return
          </CharString>
          <CharString index="609">
            -6 vhcurveto
            -28 vlineto
            return
          </CharString>
          <CharString index="610">
            27 20 23 25 return
          </CharString>
          <CharString index="611">
            hstemhm
            65 74 9 61 -54 67 hintmask 11101000
            293 return
          </CharString>
          <CharString index="612">
            -5 rlinecurve
            -15 -55 -17 -55 93 callgsubr
            return
          </CharString>
          <CharString index="613">
            24 hstem
            100 78 169 78 168 78 vstem
            return
          </CharString>
          <CharString index="614">
            hstemhm
            40 85 158 75 -74 79 196 87 return
          </CharString>
          <CharString index="615">
            -102 -26 -53 -28 65 -43 93 -19 50 -9 21 return
          </CharString>
          <CharString index="616">
            -5 0 26 191 30 137 64 -36 25 return
          </CharString>
          <CharString index="617">
            5 vhcurveto
            24 -199 -24 vlineto
            52 -5 4 -7 return
          </CharString>
          <CharString index="618">
            -12 51 299 57 155 73 -8 8 hstemhm
            return
          </CharString>
          <CharString index="619">
            52 1 58 rrcurveto
            4 0 4 3 vvcurveto
            endchar
          </CharString>
          <CharString index="620">
            rmoveto
            -40 -18 -41 -21 -40 -23 return
          </CharString>
          <CharString index="621">
            rlinecurve
            -19 -35 -40 -62 -27 -45 return
          </CharString>
          <CharString index="622">
            -200 -12 57 353 39 return
          </CharString>
          <CharString index="623">
            32 -28 28 hstemhm
            128 84 return
          </CharString>
          <CharString index="624">
            hhcurveto
            17 207 callsubr
            return
          </CharString>
          <CharString index="625">
            hhcurveto
            -14 -13 243 callsubr
            return
          </CharString>
          <CharString index="626">
            6 vhcurveto
            28 -254 -28 vlineto
            return
          </CharString>
          <CharString index="627">
            11 -26 -13 5 -15 hhcurveto
            -25 return
          </CharString>
          <CharString index="628">
            -12 26 19 -10 23 hhcurveto
            28 return
          </CharString>
          <CharString index="629">
            rmoveto
            -34 -32 -28 -33 return
          </CharString>
          <CharString index="630">
            -18 12 15 vvcurveto
            19 return
          </CharString>
          <CharString index="631">
            -18 -69 -23 hvcurveto
            25 return
          </CharString>
          <CharString index="632">
            3 vhcurveto
            30 -3 13 return
          </CharString>
          <CharString index="633">
            8 10 -21 hvcurveto
            return
          </CharString>
          <CharString index="634">
            vlineto
            -85 -9 -6 return
          </CharString>
          <CharString index="635">
            vvcurveto
            -250 vlineto
            return
          </CharString>
          <CharString index="636">
            -62 -6 vhcurveto
            -26 return
          </CharString>
          <CharString index="637">
            -23 26 hvcurveto
            endchar
          </CharString>
          <CharString index="638">
            -60 -47 -13 1 -8 -8 vvcurveto
            hintmask 01110011
            -74 return
          </CharString>
          <CharString index="639">
            0 27 107 35 93 37 195 35 hstem
            return
          </CharString>
          <CharString index="640">
            126 224 59 hstem
            34 563 vstem
            return
          </CharString>
          <CharString index="641">
            24 40 46 45 vvcurveto
            19 -10 22 -14 -12 return
          </CharString>
          <CharString index="642">
            5 vhcurveto
            24 -191 -24 vlineto
            53 -5 5 return
          </CharString>
          <CharString index="643">
            9 -21 32 -21 551 73 -12 12 hstemhm
            return
          </CharString>
          <CharString index="644">
            -83 -59 -79 rrcurveto
            -23 162 -29 vlineto
            -40 return
          </CharString>
          <CharString index="645">
            hlineto
            -37 -50 -19 -26 5 -14 25 -24 rlinecurve
            return
          </CharString>
          <CharString index="646">
            -26 45 49 -27 40 hhcurveto
            35 29 13 18 return
          </CharString>
          <CharString index="647">
            -42 25 -14 rcurveline
            -44 112 rmoveto
            -1 11 return
          </CharString>
          <CharString index="648">
            -13 27 20 -9 22 hhcurveto
            27 34 17 68 return
          </CharString>
          <CharString index="649">
            305 callsubr
            50 -30 50 rrcurveto
            -27 hlineto
            return
          </CharString>
          <CharString index="650">
            2 -59 -8 -8 -6 rlinecurve
            -14 -55 -16 -55 return
          </CharString>
          <CharString index="651">
            rmoveto
            -27 -23 -23 -29 -28 23 -23 27 29 return
          </CharString>
          <CharString index="652">
            rmoveto
            -32 23 -404 -658 30 -24 rlineto
            return
          </CharString>
          <CharString index="653">
            0 27 123 37 62 37 219 27 return
          </CharString>
          <CharString index="654">
            rcurveline
            187 -64 rlineto
            endchar
          </CharString>
          <CharString index="655">
            23 -23 27 hvcurveto
            endchar
          </CharString>
          <CharString index="656">
            -43 -31 -53 -66 return
          </CharString>
          <CharString index="657">
            22 -23 26 27 return
          </CharString>
          <CharString index="658">
            -33 -43 -31 -53 return
          </CharString>
          <CharString index="659">
            rmoveto
            -22 -29 -18 return
          </CharString>
          <CharString index="660">
            vvcurveto
            111 vlineto
            return
          </CharString>
          <CharString index="661">
            hhcurveto
            16 13 -4 return
          </CharString>
        <CharString name=".notdef">
          -5 0 50 600 50 hstem
          0 50 400 50 vstem
          500 hmoveto
          700 -500 -700 vlineto
          420 650 rmoveto
          -170 -255 -170 255 rlineto
          370 -555 rmoveto
          -170 255 170 255 rlineto
          -370 -555 rmoveto
          170 255 170 -255 rlineto
          -370 555 rmoveto
          170 -255 -170 -255 rlineto
          endchar
        </CharString>
        <CharString name="A">
          -44 callsubr
          hstem
          20 145 327 181 vstem
          -98 callgsubr
          -35 -88 -14 -6 -63 -9 rlinecurve
          -105 callgsubr
          endchar
        </CharString>
        <CharString name="A.sc">
          -59 callsubr
          hstem
          25 125 227 162 vstem
          -107 callgsubr
          endchar
        </CharString>
        <CharString name="AE">
          -50 callsubr
          endchar
        </CharString>
        <CharString name="AE.sc">
          -46 callsubr
        </CharString>
        <CharString name="AEacute">
          -50 callsubr
          243 146 58 callsubr
        </CharString>
        <CharString name="AEacute.sc">
          -54 callgsubr
        </CharString>
        <CharString name="Aacute">
          -44 callsubr
          hstem
          20 145 327 181 vstem
          -98 callgsubr
          -35 -88 -14 -6 -63 -9 rlinecurve
          -105 callgsubr
          174 221 58 callgsubr
        </CharString>
        <CharString name="Aacute.sc">
          -59 callsubr
          209 12 hstem
          25 125 227 162 vstem
          -107 callgsubr
          156 301 -10 callgsubr
          -35 -40 -62 -27 194 callgsubr
        </CharString>
        <CharString name="Abreve">
          -44 callsubr
          50 57 360 callgsubr
          73 30 174 30 20 181 hintmask 11101111
          -98 callgsubr
          -35 -88 -14 -6 -63 -9 rlinecurve
          -105 callgsubr
          hintmask 11111110
          112 278 33 callsubr
          endchar
        </CharString>
        <CharString name="Abreve.sc">
          -59 callsubr
          75 54 hstemhm
          25 125 22 32 160 32 -19 162 hintmask 11111101
          -107 callgsubr
          hintmask 11110110
          -89 299 409 callsubr
          -52 -8 -28 -26 -45 327 callsubr
          -7 hvcurveto
          endchar
        </CharString>
        <CharString name="Acircumflex">
          -44 callsubr
          hstem
          20 145 327 181 vstem
          -98 callgsubr
          -35 -88 -14 -6 -63 -9 rlinecurve
          -105 callgsubr
          163 174 95 callgsubr
          336 callgsubr
        </CharString>
        <CharString name="Acircumflex.sc">
          -59 callsubr
          hstem
          25 125 227 162 vstem
          -107 callgsubr
          139 170 178 callgsubr
          -37 -50 25 -19 rcurveline
          33 30 30 30 27 29 28 -29 174 callgsubr
        </CharString>
        <CharString name="Adieresis">
          -44 callsubr
          51 97 360 callgsubr
          45 95 96 95 -4 181 hintmask 11111101
          -98 callgsubr
          -35 -88 -14 -6 -63 -9 rlinecurve
          -105 callgsubr
          hintmask 11111110
          118 259 153 callsubr
        </CharString>
        <CharString name="Adieresis.sc">
          -59 callsubr
          88 98 hstemhm
          25 125 -4 95 79 95 -38 162 hintmask 11111001
          -107 callgsubr
          hintmask 11110110
          -67 278 -8 callgsubr
          -21 -21 -29 -25 21 -25 callsubr
          endchar
        </CharString>
        <CharString name="Agrave">
          -44 callsubr
          hstem
          20 145 327 181 vstem
          -98 callgsubr
          -35 -88 -14 -6 -63 -9 rlinecurve
          -105 callgsubr
          77 174 rmoveto
          -51 176 callgsubr
        </CharString>
        <CharString name="Agrave.sc">
          -59 callsubr
          hstem
          25 125 227 162 vstem
          -107 callgsubr
          60 161 46 callsubr
          59 -57 52 -54 rlinecurve
          endchar
        </CharString>
        <CharString name="Alpha">
          -44 callsubr
          hstem
          20 145 327 181 vstem
          -98 callgsubr
          -35 -88 -14 -6 -63 -9 rlinecurve
          -105 callgsubr
          endchar
        </CharString>
        <CharString name="Alphatonos">
          -44 callsubr
          hstem
          20 145 327 181 vstem
          -98 callgsubr
          -35 -88 -14 -6 -63 -9 rlinecurve
          -105 callgsubr
          -122 161 -12 callgsubr
        </CharString>
        <CharString name="Amacron">
          -44 callsubr
          70 52 hstem
          20 145 327 181 vstem
          -98 callgsubr
          -35 -88 -14 -6 -63 -9 rlinecurve
          -105 callgsubr
          138 180 488 callsubr
        </CharString>
        <CharString name="Amacron.sc">
          -59 callsubr
          108 55 hstem
          25 125 227 162 vstem
          -107 callgsubr
          128 200 283 callsubr
        </CharString>
        <CharString name="Aogonek">
          186 -237 58 179 26 211 43 385 -20 hstem
          20 145 208 68 54 178 vstem
          673 hmoveto
          26 vlineto
          -64 7 -14 11 -32 85 -64 174 -67 190 -62 172 -10 -3 -11 -3 -10 -3 -68 -174 -74 -189 -65 -161 -35 -89 -15 -7 -62 -9 rrcurveto
          -27 218 27 vlineto
          -76 8 -9 9 22 64 13 41 15 43 17 45 rrcurveto
          211 hlineto
          16 -46 35 -92 10 -33 6 -18 -2 -8 -10 -10 rrcurveto
          -46 -46 -67 -70 -67 vvcurveto
          -41 23 -43 66 9 15 4 6 10 vhcurveto
          57 34 -8 25 rlineto
          -5 -13 -19 -6 -14 hhcurveto
          -33 -25 19 36 38 35 62 28 24 hvcurveto
          -86 280 rmoveto
          -184 hlineto
          31 82 32 87 32 84 504 callgsubr
        </CharString>
        <CharString name="Aogonek.sc">
          -8 callsubr
        </CharString>
        <CharString name="Aring">
          -44 callsubr
          41 31 107 31 360 callgsubr
          101 44 88 45 49 181 hintmask 1110111110000000
          -98 callgsubr
          -35 -88 -14 -6 -63 -9 rlinecurve
          -105 callgsubr
          24 320 rmoveto
          -44 -44 -31 -52 hvcurveto
          hintmask 1111111110000000
          -53 44 -33 44 44 45 33 53 vhcurveto
          hintmask 1110111110000000
          52 -45 31 -44 vhcurveto
          -31 vmoveto
          27 17 -22 -30 hvcurveto
          hintmask 1111111110000000
          -31 -17 -24 -27 -26 -18 24 31 vhcurveto
          hintmask 1110111110000000
          30 18 22 26 vhcurveto
          endchar
        </CharString>
        <CharString name="Aring.sc">
          -59 callsubr
          56 31 105 32 hstemhm
          25 125 44 45 87 45 6 162 hintmask 1111111010000000
          -107 callgsubr
          hintmask 1111101100000000
          22 316 rmoveto
          -45 -44 -32 -51 -53 44 -32 45 44 44 32 53 51 -44 32 -44 hvcurveto
          -32 vmoveto
          24 19 -21 -30 -30 -17 -24 -26 -27 -17 24 30 30 17 21 27 hvcurveto
          endchar
        </CharString>
        <CharString name="Aringacute">
          -44 callsubr
          38 31 106 32 360 callgsubr
          92 44 88 45 58 181 hintmask 1110111110000000
          -98 callgsubr
          -35 -88 -14 -6 -63 -9 rlinecurve
          -105 callgsubr
          15 317 rmoveto
          -44 -44 -32 -52 hvcurveto
          hintmask 1111111110000000
          -52 44 -33 44 45 44 33 52 vhcurveto
          hintmask 1110111110000000
          52 -44 32 -45 vhcurveto
          1 -32 rmoveto
          26 17 -22 -30 hvcurveto
          hintmask 1111111110000000
          -31 -17 -23 -26 -27 -18 23 31 vhcurveto
          hintmask 1110111110000000
          30 18 22 27 vhcurveto
          132 114 rmoveto
          -3 14 -28 38 -12 3 -46 -30 -57 -38 -54 -34 13 103 callsubr
        </CharString>
        <CharString name="Atilde">
          -44 callsubr
          52 56 -20 55 360 callgsubr
          327 181 hintmask 11110110
          -98 callgsubr
          -35 -88 -14 -6 -63 -9 rlinecurve
          -105 callgsubr
          hintmask 11101110
          -26 253 347 callsubr
          14 15 16 18 hhcurveto
          18 10 157 callsubr
          hintmask 11110110
          159 callsubr
          -28 -13 -13 -15 -19 hhcurveto
          -18 -16 6 10 -21 hvcurveto
          hintmask 11101110
          284 callsubr
        </CharString>
        <CharString name="Atilde.sc">
          -59 callsubr
          91 58 -20 57 hstemhm
          25 125 227 162 hintmask 11101110
          -107 callgsubr
          -29 278 rmoveto
          -25 -34 72 callsubr
          hintmask 11110110
          49 callgsubr
          7 11 -21 hvcurveto
          hintmask 11101110
          72 callgsubr
        </CharString>
        <CharString name="B">
          -63 callgsubr
        </CharString>
        <CharString name="B.sc">
          5 callgsubr
        </CharString>
        <CharString name="Beta">
          -63 callgsubr
        </CharString>
        <CharString name="C">
          160 -15 36 608 36 hstem
          44 -75 callsubr
          endchar
        </CharString>
        <CharString name="C.sc">
          26 -13 33 425 32 hstem
          43 94 -86 callsubr
          endchar
        </CharString>
        <CharString name="Cacute">
          160 -15 36 608 36 hstem
          44 -75 callsubr
          -128 606 58 callgsubr
        </CharString>
        <CharString name="Cacute.sc">
          26 -13 33 425 32 190 12 hstem
          43 94 -86 callsubr
          -74 533 -10 callgsubr
          -35 -39 -62 -28 194 callgsubr
        </CharString>
        <CharString name="Ccaron">
          160 -15 36 608 36 hstem
          44 -75 callsubr
          -125 671 77 callgsubr
        </CharString>
        <CharString name="Ccaron.sc">
          26 -13 33 425 32 hstem
          43 94 -86 callsubr
          -104 551 41 callgsubr
        </CharString>
        <CharString name="Ccedilla">
          156 -14 37 605 37 hstemhm
          46 103 195 59 -14 66 hintmask 11110000
          613 178 rmoveto
          -102 -52 -51 -53 -105 hhcurveto
          -157 -99 133 180 165 96 127 152 112 53 -41 -108 31 hvcurveto
          30 5 -6 56 -6 42 -8 57 rlinecurve
          6 -28 -65 20 -85 hhcurveto
          -221 -158 -143 -208 -152 101 -169 235 -7 hvcurveto
          -27 -37 -18 -24 5 -14 24 -24 rlinecurve
          hintmask 11101000
          11 -11 12 -11 -16 vvcurveto
          -1 -21 -19 -21 -41 -18 13 -28 rcurveline
          69 22 45 40 40 vvcurveto
          23 -12 18 -26 27 vhcurveto
          hintmask 11110000
          -16 17 -3 8 13 17 11 14 rcurveline
          64 1 75 18 27 5 16 34 24 72 14 50 rrcurveto
          endchar
        </CharString>
        <CharString name="Ccedilla.sc">
          -12 callsubr
        </CharString>
        <CharString name="Ccircumflex">
          160 -15 36 608 36 hstem
          44 -75 callsubr
          -110 558 rmoveto
          -43 33 -44 32 -39 42 rrcurveto
          -21 hlineto
          -39 -41 -44 -33 -43 -33 16 -25 rcurveline
          40 17 41 142 callsubr
        </CharString>
        <CharString name="Ccircumflex.sc">
          26 -13 33 425 32 hstem
          43 94 -86 callsubr
          -78 402 rmoveto
          -39 50 -34 50 -29 50 rrcurveto
          -28 hlineto
          -30 -51 -35 -49 -38 54 callsubr
        </CharString>
        <CharString name="Cdotaccent">
          160 -15 36 608 36 42 104 hstem
          44 102 202 -75 callsubr
          -244 646 337 callgsubr
        </CharString>
        <CharString name="Cdotaccent.sc">
          26 -13 33 425 32 66 103 hstem
          43 94 110 100 -86 callsubr
          -199 512 113 callgsubr
        </CharString>
        <CharString name="Chi">
          -66 callsubr
        </CharString>
        <CharString name="D">
          23 callsubr
          endchar
        </CharString>
        <CharString name="D.sc">
          -63 callsubr
          endchar
        </CharString>
        <CharString name="Dcaron">
          23 callsubr
          251 690 rmoveto
          -40 -18 -42 -21 -39 -23 -40 24 -41 117 callgsubr
          43 32 rrcurveto
          endchar
        </CharString>
        <CharString name="Dcaron.sc">
          -63 callsubr
          180 573 rmoveto
          -34 -30 -30 -30 -27 -29 -27 29 -30 77 callsubr
        </CharString>
        <CharString name="Dcroat">
          1 callgsubr
        </CharString>
        <CharString name="Dcroat.sc">
          -67 callsubr
        </CharString>
        <CharString name="Delta">
          140 callsubr
        </CharString>
        <CharString name="E">
          -62 callsubr
          420 callsubr
          hintmask 01110110
          -105 callsubr
          hintmask 10101110
          -79 callsubr
          hintmask 01110110
          -57 callsubr
          endchar
        </CharString>
        <CharString name="E.sc">
          -23 0 254 callgsubr
          147 28 16 27 hintmask 11111000
          -103 callgsubr
          hintmask 11111100
          -101 callsubr
          endchar
        </CharString>
        <CharString name="Eacute">
          -62 callsubr
          420 callsubr
          hintmask 01110110
          -105 callsubr
          hintmask 10101110
          -79 callsubr
          hintmask 01110110
          -57 callsubr
          -115 598 58 callgsubr
        </CharString>
        <CharString name="Eacute.sc">
          -45 callsubr
          203 12 -1 callsubr
          hintmask 11101100
          -103 callgsubr
          hintmask 11111110
          -101 callsubr
          -69 544 106 callgsubr
        </CharString>
        <CharString name="Ebreve">
          -62 callsubr
          46 56 hstemhm
          128 85 -31 30 174 30 -1 29 hintmask 0111011001000000
          -105 callsubr
          hintmask 1010111001000000
          -79 callsubr
          hintmask 0111010110000000
          -57 callsubr
          -160 656 rmoveto
          -35 -9 -25 -27 -53 hhcurveto
          -53 -25 27 35 -9 hvcurveto
          -30 hlineto
          -80 1 47 -38 69 hhcurveto
          68 48 38 80 1 hvcurveto
          endchar
        </CharString>
        <CharString name="Ebreve.sc">
          -45 callsubr
          69 54 143 callgsubr
          -61 32 160 31 -15 28 16 27 hintmask 1111100100000000
          -103 callgsubr
          hintmask 1111100110000000
          -101 callsubr
          hintmask 1111011000000000
          -316 542 -1 callgsubr
        </CharString>
        <CharString name="Ecaron">
          -62 callsubr
          420 callsubr
          hintmask 01110110
          -105 callsubr
          hintmask 10101110
          -79 callsubr
          hintmask 01110110
          -57 callsubr
          -130 663 rmoveto
          -40 -17 -42 -21 -39 -23 -40 24 -41 20 -41 17 -15 -25 rcurveline
          43 -33 43 -33 40 -42 rrcurveto
          22 hlineto
          39 42 43 33 43 33 rrcurveto
          endchar
        </CharString>
        <CharString name="Ecaron.sc">
          -23 0 254 callgsubr
          147 28 16 27 hintmask 11111000
          -103 callgsubr
          hintmask 11111100
          -101 callsubr
          -109 562 rmoveto
          -34 -30 -30 -30 -27 -29 -28 29 -29 77 callsubr
        </CharString>
        <CharString name="Ecircumflex">
          -62 callsubr
          420 callsubr
          hintmask 01110110
          -105 callsubr
          hintmask 10101110
          -79 callsubr
          hintmask 01110110
          -57 callsubr
          -122 551 rmoveto
          -43 64 callgsubr
          40 17 41 142 callsubr
        </CharString>
        <CharString name="Ecircumflex.sc">
          -23 0 254 callgsubr
          147 28 16 27 hintmask 11111000
          -103 callgsubr
          hintmask 11111100
          -101 callsubr
          -89 414 -48 callgsubr
        </CharString>
        <CharString name="Edieresis">
          -62 callsubr
          49 98 hstemhm
          128 85 -66 95 96 95 -18 29 hintmask 0111001001000000
          -105 callsubr
          hintmask 1010101001000000
          -79 callsubr
          hintmask 0111010110000000
          -57 callsubr
          -161 639 366 callsubr
          -190 hmoveto
          -26 -22 -22 475 callsubr
          26 27 20 22 26 28 -20 22 -27 hvcurveto
          endchar
        </CharString>
        <CharString name="Edieresis.sc">
          -45 callsubr
          82 98 hstemhm
          105 95 -88 81 85 96 -34 28 16 27 hintmask 1110010100000000
          -103 callgsubr
          hintmask 1110010110000000
          -101 callsubr
          hintmask 1111101000000000
          -295 521 -40 callgsubr
        </CharString>
        <CharString name="Edotaccent">
          -62 callsubr
          53 104 hstemhm
          128 85 34 103 65 29 hintmask 0111001010000000
          -105 callsubr
          hintmask 1010101010000000
          -79 callsubr
          hintmask 0111011110000000
          -57 callsubr
          -248 649 rmoveto
          -28 -23 -23 -30 -29 23 -22 28 29 23 22 29 30 -23 531 callgsubr
        </CharString>
        <CharString name="Edotaccent.sc">
          -45 callsubr
          79 103 143 callgsubr
          8 101 38 28 16 27 hintmask 11101010
          -103 callgsubr
          hintmask 11101011
          -101 callsubr
          hintmask 11111110
          -197 523 rmoveto
          -27 -23 -22 -30 -27 23 -24 27 276 callsubr
        </CharString>
        <CharString name="Egrave">
          -62 callsubr
          420 callsubr
          hintmask 01110110
          -105 callsubr
          hintmask 10101110
          -79 callsubr
          hintmask 01110110
          -57 callsubr
          -197 551 310 callgsubr
        </CharString>
        <CharString name="Egrave.sc">
          -23 0 254 callgsubr
          147 28 16 27 hintmask 11111000
          -103 callgsubr
          hintmask 11111100
          -101 callsubr
          -161 404 94 callgsubr
        </CharString>
        <CharString name="Emacron">
          -62 callsubr
          66 52 420 callsubr
          hintmask 01110111
          -105 callsubr
          hintmask 10101111
          -79 callsubr
          hintmask 01110111
          -57 callsubr
          -135 558 242 callgsubr
        </CharString>
        <CharString name="Emacron.sc">
          -45 callsubr
          102 544 callgsubr
          hintmask 11111100
          -103 callgsubr
          hintmask 11111110
          -101 callsubr
          -92 443 283 callsubr
        </CharString>
        <CharString name="Eng">
          231 -212 67 145 124 callsubr
          hstem
          129 42 410 42 vstem
          712 650 rmoveto
          -237 -28 hlineto
          70 -4 23 -12 6 -46 rrcurveto
          3 -28 4 -50 -93 vvcurveto
          -238 -3 vlineto
          -410 499 rlineto
          -148 -28 hlineto
          47 -4 22 -8 20 -25 rrcurveto
          18 -24 2 -9 -73 vvcurveto
          -211 vlineto
          -91 -3 -53 -4 -31 vhcurveto
          -5 -49 -24 -13 -58 -3 rrcurveto
          -28 238 28 vlineto
          -68 4 -22 12 -6 51 rrcurveto
          -3 29 -3 53 91 vvcurveto
          244 2 vlineto
          406 -503 rlineto
          -124 -2 -41 -30 -34 -20 -10 5 -9 hhcurveto
          -12 -2 -10 -10 -27 22 -25 23 36 32 21 44 24 hvcurveto
          31 54 6 79 116 vvcurveto
          -1 287 rlineto
          93 3 50 3 31 vhcurveto
          5 43 23 13 56 3 rrcurveto
          endchar
        </CharString>
        <CharString name="Eng.sc">
          -19 callsubr
        </CharString>
        <CharString name="Eogonek">
          63 -238 59 179 34 284 41 256 35 -28 28 hstemhm
          128 85 111 69 22 29 hintmask 01110101
          517 163 rmoveto
          -15 -36 -17 -37 -17 -21 rrcurveto
          -25 -22 -31 -10 -74 hhcurveto
          -50 -35 1 12 -19 hvcurveto
          -18 13 -6 24 47 vvcurveto
          187 98 vlineto
          87 4 -4 -70 13 hvcurveto
          29 186 -29 hlineto
          -66 -13 -1 -5 -91 hhcurveto
          -97 224 hlineto
          29 2 3 31 vhcurveto
          72 hlineto
          71 24 -6 -20 18 hvcurveto
          17 -20 9 -24 10 -43 29 4 rcurveline
          -4 52 -5 67 -1 25 rrcurveto
          -444 hlineto
          hintmask 11101111
          -28 vlineto
          78 -7 8 -6 -90 vvcurveto
          -391 vlineto
          -86 -8 -7 -91 -7 vhcurveto
          -28 405 vlineto
          -59 -47 -51 -64 -52 vvcurveto
          -41 24 -34 60 9 19 6 6 9 vhcurveto
          53 32 -8 26 rlineto
          -8 -17 -17 -3 -13 hhcurveto
          -27 -23 12 33 37 32 56 49 41 hvcurveto
          37 hlineto
          9 31 20 94 6 33 rrcurveto
          endchar
        </CharString>
        <CharString name="Eogonek.sc">
          -38 callgsubr
        </CharString>
        <CharString name="Epsilon">
          -62 callsubr
          420 callsubr
          hintmask 01110110
          -105 callsubr
          hintmask 10101110
          -79 callsubr
          hintmask 01110110
          -57 callsubr
          endchar
        </CharString>
        <CharString name="Epsilontonos">
          -62 callsubr
          420 callsubr
          hintmask 01110110
          -105 callsubr
          hintmask 10101110
          -79 callsubr
          hintmask 01110110
          -57 callsubr
          -542 538 -12 callgsubr
        </CharString>
        <CharString name="Eta">
          351 callsubr
          128 85 341 -97 callgsubr
          endchar
        </CharString>
        <CharString name="Etatonos">
          351 callsubr
          128 85 341 -97 callgsubr
          -732 74 -12 callgsubr
        </CharString>
        <CharString name="Eth">
          1 callgsubr
        </CharString>
        <CharString name="Eth.sc">
          -67 callsubr
        </CharString>
        <CharString name="Euro">
          -25 -12 34 227 37 70 37 209 34 hstemhm
          66 90 -89 92 hintmask 11111000
          430 137 rmoveto
          -74 -36 -30 -41 -58 hhcurveto
          hintmask 11110100
          -85 -53 84 143 -9 hvcurveto
          220 37 hlineto
          hintmask 11111000
          -224 hlineto
          -1 20 0 26 2 24 rrcurveto
          223 37 -219 hlineto
          139 17 56 70 77 hhcurveto
          69 25 -43 -72 19 hvcurveto
          29 6 -4 41 -5 41 -5 40 rlinecurve
          6 -21 -40 15 -56 hhcurveto
          -132 -93 -89 -154 -25 hvcurveto
          -49 -37 44 hlineto
          -2 -22 -1 -30 1 -18 rrcurveto
          -42 -37 45 hlineto
          -137 13 70 -124 149 hhcurveto
          44 56 15 8 19 hvcurveto
          13 25 19 54 9 38 rrcurveto
          endchar
        </CharString>
        <CharString name="Euro.fitted">
          69 -12 37 226 36 67 36 212 34 hstem
          77 91 vstem
          508 144 rmoveto
          -71 -38 -38 -48 -75 hhcurveto
          -99 -68 76 150 -19 hvcurveto
          278 36 -281 hlineto
          -1 20 0 23 1 24 rrcurveto
          281 36 -276 hlineto
          128 18 65 84 102 hhcurveto
          84 33 -40 -81 23 hvcurveto
          27 6 -5 39 -5 52 -6 36 rlinecurve
          6 -22 -48 16 -67 hhcurveto
          -150 -108 -90 -156 -32 hvcurveto
          -60 -36 55 hlineto
          -2 -22 -2 -27 1 -18 rrcurveto
          -52 -36 55 hlineto
          18 -151 90 -113 165 1 rrcurveto
          52 63 15 8 23 hvcurveto
          15 25 20 60 11 37 rrcurveto
          endchar
        </CharString>
        <CharString name="Euro.oldstyle">
          24 -12 34 182 36 63 36 169 33 hstem
          73 93 vstem
          464 129 rmoveto
          -66 -37 -30 -41 -70 hhcurveto
          -85 -56 73 109 -16 hvcurveto
          230 36 -234 hlineto
          -1 23 -1 18 2 22 rrcurveto
          233 36 -229 hlineto
          103 15 56 66 84 hhcurveto
          79 28 -43 -66 21 hvcurveto
          26 6 -5 43 -3 34 -6 38 rlinecurve
          5 -20 -48 16 -59 hhcurveto
          -134 -95 -74 -128 -28 hvcurveto
          -53 -36 47 hlineto
          -2 -20 0 -23 -20 vvcurveto
          -45 -36 48 hlineto
          -110 18 70 -106 159 hhcurveto
          50 56 14 6 20 hvcurveto
          12 22 18 51 10 37 rrcurveto
          endchar
        </CharString>
        <CharString name="Euro.taboldstyle">
          -19 -12 34 185 35 59 36 171 33 hstem
          60 92 vstem
          410 126 rmoveto
          -62 -33 -28 -42 -61 hhcurveto
          -77 -46 75 110 -10 hvcurveto
          200 35 -203 hlineto
          -2 22 1 19 1 18 rrcurveto
          202 36 -199 hlineto
          106 15 46 65 76 hhcurveto
          73 23 -41 -66 18 hvcurveto
          27 6 -4 43 -3 36 -6 38 rlinecurve
          4 -18 -45 13 -52 hhcurveto
          -126 -86 -77 -127 -26 hvcurveto
          -60 -36 55 hlineto
          -2 -19 0 -19 -21 vvcurveto
          -53 -35 56 hlineto
          -110 14 54 -109 152 hhcurveto
          46 50 13 6 18 hvcurveto
          12 21 18 55 9 32 rrcurveto
          endchar
        </CharString>
        <CharString name="F">
          24 0 28 279 39 269 35 -28 28 hstemhm
          128 85 211 28 hintmask 11101100
          493 503 rmoveto
          -5 47 -5 64 36 vvcurveto
          -440 hlineto
          hintmask 11011100
          -28 vlineto
          77 -6 8 -5 -87 vvcurveto
          -398 vlineto
          -86 -8 -6 -80 -6 vhcurveto
          -28 272 28 vlineto
          -91 6 -8 6 86 vvcurveto
          181 103 vlineto
          91 4 -12 -68 13 hvcurveto
          28 192 -28 hlineto
          -64 -13 -4 -9 -91 hhcurveto
          -103 hlineto
          hintmask 11101100
          238 vlineto
          29 3 2 29 vhcurveto
          76 hlineto
          76 22 -8 -28 16 hvcurveto
          14 -21 6 -19 8 -40 rrcurveto
          endchar
        </CharString>
        <CharString name="F.sc">
          13 callgsubr
        </CharString>
        <CharString name="G">
          168 callsubr
          hstem
          44 102 397 85 vstem
          -82 callgsubr
          endchar
        </CharString>
        <CharString name="G.sc">
          70 callgsubr
          hstem
          42 95 268 81 vstem
          -95 callsubr
          endchar
        </CharString>
        <CharString name="G_tildecomb">
          168 callsubr
          32 339 callgsubr
          44 102 397 85 hintmask 11101110
          -82 callgsubr
          -333 514 rmoveto
          -24 -32 -19 -63 -24 400 callsubr
          hintmask 11110110
          -13 27 21 -9 21 hhcurveto
          28 33 18 67 22 hvcurveto
          -25 14 rlineto
          -28 -13 -14 -15 367 callsubr
        </CharString>
        <CharString name="G_tildecomb.sc">
          70 callgsubr
          76 58 -20 57 hstemhm
          42 95 268 81 hintmask 11101110
          -95 callsubr
          -266 446 392 callsubr
          -24 32 callgsubr
          17 12 -4 -10 17 hvcurveto
          hintmask 11110110
          -13 26 -43 callsubr
          -16 526 callsubr
          hintmask 11101110
          72 callgsubr
        </CharString>
        <CharString name="Gamma">
          2 471 callgsubr
          -28 28 hstemhm
          126 86 hintmask 11010000
          485 501 rmoveto
          -5 49 -5 64 36 vvcurveto
          -434 hlineto
          hintmask 10110000
          -28 vlineto
          78 -6 7 -10 -82 vvcurveto
          -398 vlineto
          -82 -8 -10 -78 -6 vhcurveto
          -28 271 28 vlineto
          -91 6 -8 9 83 vvcurveto
          hintmask 11010000
          458 vlineto
          28 4 3 28 vhcurveto
          73 hlineto
          65 22 -7 -21 16 hvcurveto
          15 -19 9 -27 11 -44 rrcurveto
          endchar
        </CharString>
        <CharString name="Gbreve">
          168 callsubr
          39 56 hstem
          44 102 129 30 174 30 34 85 vstem
          -82 callgsubr
          -213 548 rmoveto
          -35 -10 -25 -27 -53 hhcurveto
          -53 -25 27 35 -8 hvcurveto
          -30 hlineto
          -80 1 46 -38 69 hhcurveto
          69 47 38 80 2 hvcurveto
          endchar
        </CharString>
        <CharString name="Gbreve.sc">
          70 callgsubr
          56 54 hstemhm
          42 95 55 33 159 32 -11 81 hintmask 11111101
          -95 callsubr
          -341 463 rmoveto
          -100 52 -32 59 vhcurveto
          1 hlineto
          hintmask 11111110
          59 502 callgsubr
          -32 hlineto
          -52 -7 -28 -26 -46 327 callsubr
          -6 hvcurveto
          endchar
        </CharString>
        <CharString name="Gcircumflex">
          168 callsubr
          hstem
          44 102 397 85 vstem
          -82 callgsubr
          -155 442 95 callgsubr
          -43 -33 17 -25 rcurveline
          39 446 callsubr
        </CharString>
        <CharString name="Gcircumflex.sc">
          70 callgsubr
          hstem
          42 95 268 81 vstem
          -95 callsubr
          -112 334 -48 callgsubr
        </CharString>
        <CharString name="Gcommaaccent.sc">
          70 callgsubr
          hstemhm
          42 95 197 55 16 81 hintmask 11110100
          -95 callsubr
          hintmask 11111100
          -218 -245 62 callsubr
        </CharString>
        <CharString name="Gdotaccent">
          168 callsubr
          40 104 hstem
          44 102 202 102 93 85 vstem
          -82 callgsubr
          -293 535 rmoveto
          -29 -22 -23 -30 -28 22 -23 29 29 22 23 28 30 548 callgsubr
        </CharString>
        <CharString name="Gdotaccent.sc">
          70 callgsubr
          66 103 hstem
          42 95 119 100 49 81 vstem
          -95 callsubr
          -227 444 113 callgsubr
        </CharString>
        <CharString name="H">
          351 callsubr
          128 85 341 -97 callgsubr
          endchar
        </CharString>
        <CharString name="H.sc">
          -66 callgsubr
          endchar
        </CharString>
        <CharString name="Hbar">
          261 0 28 282 42 120 36 114 28 hstem
          128 85 341 85 vstem
          727 472 rmoveto
          36 -88 18 vlineto
          84 8 5 82 7 vhcurveto
          28 -261 -28 vlineto
          78 -7 8 -4 -85 vvcurveto
          -18 -341 18 vlineto
          85 8 5 76 6 vhcurveto
          28 -259 87 callgsubr
          -5 -85 vvcurveto
          -18 -88 -36 88 -343 vlineto
          -88 -8 -7 -80 -6 vhcurveto
          -28 263 28 vlineto
          -82 6 -8 8 87 vvcurveto
          181 341 -181 vlineto
          -87 -9 -8 -85 -6 vhcurveto
          -28 268 28 vlineto
          -81 6 -8 8 87 vvcurveto
          343 vlineto
          -85 -120 rmoveto
          -341 120 341 hlineto
          endchar
        </CharString>
        <CharString name="Hbar.sc">
          -2 callgsubr
        </CharString>
        <CharString name="Hcircumflex">
          351 callsubr
          128 85 341 -97 callgsubr
          -210 87 85 callsubr
          endchar
        </CharString>
        <CharString name="Hcircumflex.sc">
          -66 callgsubr
          71 539 180 callgsubr
          -38 -51 153 callgsubr
          endchar
        </CharString>
        <CharString name="I">
          429 callsubr
          128 85 vstem
          -97 callsubr
          endchar
        </CharString>
        <CharString name="I.sc">
          51 callgsubr
          hstem
          112 81 vstem
          -95 callgsubr
          endchar
        </CharString>
        <CharString name="IJ">
          164 429 callsubr
          128 85 261 84 vstem
          -97 callsubr
          606 650 rmoveto
          -260 -28 hlineto
          81 -6 9 -7 -84 vvcurveto
          -341 vlineto
          -84 -2 -58 -9 -48 vhcurveto
          -11 -57 -29 -46 -56 -28 13 -28 rcurveline
          25 8 33 19 34 31 rrcurveto
          66 61 20 69 128 vvcurveto
          374 vlineto
          84 9 7 77 6 vhcurveto
          endchar
        </CharString>
        <CharString name="IJ.sc">
          13 callsubr
        </CharString>
        <CharString name="Iacute">
          429 callsubr
          128 85 vstem
          -97 callsubr
          274 756 rmoveto
          -3 14 -28 39 -11 2 126 callsubr
        </CharString>
        <CharString name="Iacute.sc">
          51 callgsubr
          203 12 hstem
          112 81 vstem
          -95 callgsubr
          243 667 -10 callgsubr
          -35 -39 -62 -28 194 callgsubr
        </CharString>
        <CharString name="Ibreve">
          44 callgsubr
          45 57 hstem
          54 30 44 85 45 30 vstem
          -97 callsubr
          220 813 rmoveto
          -35 -10 -25 -26 -53 hhcurveto
          -53 -25 26 35 -8 hvcurveto
          -30 hlineto
          -79 1 46 -39 69 hhcurveto
          69 47 39 79 2 hvcurveto
          endchar
        </CharString>
        <CharString name="Ibreve.sc">
          51 callgsubr
          69 54 hstem
          43 33 36 81 43 31 vstem
          -95 callgsubr
          1 665 rmoveto
          -100 53 263 callgsubr
          59 502 callgsubr
          -31 393 callsubr
          -46 hhcurveto
          -43 -29 26 52 -6 hvcurveto
          endchar
        </CharString>
        <CharString name="Icircumflex">
          429 callsubr
          128 85 vstem
          -97 callsubr
          269 709 rmoveto
          -43 64 callgsubr
          39 17 42 142 callsubr
        </CharString>
        <CharString name="Icircumflex.sc">
          51 callgsubr
          hstem
          112 81 vstem
          -95 callgsubr
          228 536 480 callgsubr
          -36 -49 -37 54 callsubr
        </CharString>
        <CharString name="Idieresis">
          -45 callgsubr
        </CharString>
        <CharString name="Idieresis.sc">
          51 callgsubr
          82 98 hstemhm
          17 95 0 81 -3 96 hintmask 11101000
          -95 callgsubr
          hintmask 11110100
          23 644 -40 callgsubr
        </CharString>
        <CharString name="Idotaccent">
          44 callgsubr
          53 103 hstemhm
          119 103 -94 85 1 callsubr
          hintmask 11110000
          133 806 rmoveto
          -29 -23 -23 -29 -29 23 -22 29 28 23 22 29 29 -23 23 -28 hvcurveto
          endchar
        </CharString>
        <CharString name="Idotaccent.sc">
          51 callgsubr
          79 103 hstemhm
          103 101 -92 81 hintmask 11001000
          -95 callgsubr
          hintmask 11110000
          111 646 rmoveto
          -26 -24 -22 -30 -27 24 -24 26 276 callsubr
        </CharString>
        <CharString name="Igrave">
          429 callsubr
          128 85 vstem
          -97 callsubr
          198 709 rmoveto
          -51 273 callsubr
          187 -64 rlineto
          endchar
        </CharString>
        <CharString name="Igrave.sc">
          51 callgsubr
          hstem
          112 81 vstem
          -95 callgsubr
          153 531 rmoveto
          -88 152 97 callgsubr
          -10 32 -34 58 -57 53 -53 rlinecurve
          endchar
        </CharString>
        <CharString name="Imacron">
          44 callgsubr
          65 52 hstem
          128 85 vstem
          -97 callsubr
          244 715 242 callgsubr
        </CharString>
        <CharString name="Imacron.sc">
          51 callgsubr
          102 55 hstem
          112 81 vstem
          -95 callgsubr
          220 566 rmoveto
          55 -217 -55 vlineto
          endchar
        </CharString>
        <CharString name="Iogonek">
          -237 57 180 27 596 27 hstemhm
          87 67 -26 85 hintmask 11101000
          303 hmoveto
          27 vlineto
          -82 6 -8 8 86 vvcurveto
          395 vlineto
          87 8 8 82 6 vhcurveto
          27 -265 -27 209 callgsubr
          -8 -87 vvcurveto
          -395 vlineto
          -87 -8 -7 -82 -6 vhcurveto
          hintmask 11110000
          -27 vlineto
          39 39 0 39 hhcurveto
          -30 -48 -38 -55 -53 vvcurveto
          -41 25 -40 63 9 20 5 6 10 vhcurveto
          56 34 -8 25 rlineto
          -7 -15 -21 -6 -13 hhcurveto
          -34 -25 20 36 35 15 47 20 42 hvcurveto
          endchar
        </CharString>
        <CharString name="Iogonek.sc">
          30 callgsubr
        </CharString>
        <CharString name="Iota">
          429 callsubr
          128 85 vstem
          -97 callsubr
          endchar
        </CharString>
        <CharString name="Iotadieresis">
          -45 callgsubr
        </CharString>
        <CharString name="Iotatonos">
          429 callsubr
          128 85 vstem
          -97 callsubr
          -42 696 rmoveto
          -3 132 callgsubr
          27 -1 rcurveline
          endchar
        </CharString>
        <CharString name="Itilde">
          432 callsubr
          339 callgsubr
          128 85 hintmask 11011000
          -97 callsubr
          81 788 347 callsubr
          14 15 16 18 517 callsubr
          hintmask 11101000
          159 callsubr
          -28 -13 -13 -15 373 callsubr
          hintmask 11011000
          284 callsubr
        </CharString>
        <CharString name="Itilde.sc">
          2 callsubr
        </CharString>
        <CharString name="J">
          -2 callsubr
          endchar
        </CharString>
        <CharString name="J.sc">
          -58 callsubr
          endchar
        </CharString>
        <CharString name="Jcircumflex">
          -2 callsubr
          6 87 95 callgsubr
          -42 -33 16 388 callgsubr
        </CharString>
        <CharString name="Jcircumflex.sc">
          -58 callsubr
          -2 99 -48 callgsubr
        </CharString>
        <CharString name="K">
          274 callgsubr
          258 -52 callgsubr
          endchar
        </CharString>
        <CharString name="K.alt">
          161 0 28 287 26 281 28 hstem
          128 84 254 182 vstem
          677 -32 rmoveto
          -30 16 -39 35 -64 71 -75 84 -77 97 -72 99 60 67 72 74 41 39 58 54 21 11 76 7 rrcurveto
          28 -247 -28 vlineto
          22 -3 48 -6 4 -11 -22 -29 rlinecurve
          -47 -60 -65 -74 -57 -56 -27 -26 -22 -11 -23 -5 rrcurveto
          180 vlineto
          90 9 5 77 6 vhcurveto
          28 -257 -28 vlineto
          79 -6 8 -6 -89 vvcurveto
          -393 vlineto
          -88 -9 -6 -75 -6 vhcurveto
          -28 260 28 vlineto
          -83 6 -9 6 88 vvcurveto
          184 vlineto
          24 7 18 -4 20 -27 67 -89 66 -84 61 -70 59 -68 39 -20 60 -9 rrcurveto
          -3 17 16 -2 9 hhcurveto
          endchar
        </CharString>
        <CharString name="K.sc">
          53 0 27 194 26 190 529 callgsubr
          79 182 151 vstem
          -69 callgsubr
          endchar
        </CharString>
        <CharString name="Kappa">
          274 callgsubr
          258 -52 callgsubr
          endchar
        </CharString>
        <CharString name="Kcommaaccent.sc">
          53 0 27 194 26 190 27 449 callsubr
          131 55 -4 151 hintmask 11110100
          -69 callgsubr
          hintmask 11111000
          -98 -26 rmoveto
          -20 -22 -12 -25 -14 8 45 callsubr
        </CharString>
        <CharString name="L">
          389 callsubr
          vstem
          -61 callsubr
          endchar
        </CharString>
        <CharString name="L.sc">
          283 callgsubr
          -86 callgsubr
          endchar
        </CharString>
        <CharString name="Lacute">
          389 callsubr
          vstem
          -61 callsubr
          -206 599 58 callsubr
        </CharString>
        <CharString name="Lacute.sc">
          -45 0 31 406 27 203 12 hstem
          112 81 -86 callgsubr
          -154 537 42 callgsubr
          27 -14 rcurveline
          endchar
        </CharString>
        <CharString name="Lambda">
          181 0 28 637 -20 hstem
          20 148 322 181 vstem
          671 hmoveto
          28 vlineto
          -63 8 -15 11 -31 83 -67 179 -63 177 -64 179 -32 -10 rcurveline
          -66 -174 -68 -171 -68 -171 -36 -92 -14 -8 -64 -11 rrcurveto
          -28 221 28 vlineto
          -74 10 -11 9 22 68 39 121 59 146 51 148 rrcurveto
          2 hlineto
          46 -132 62 -175 47 -131 15 -45 -10 -10 -65 -9 rrcurveto
          -28 vlineto
          endchar
        </CharString>
        <CharString name="Lcaron">
          33 0 34 588 28 5 -20 hstemhm
          128 85 181 51 hintmask 11010000
          -61 callsubr
          hintmask 10111000
          -141 498 rmoveto
          -18 -18 -13 -24 -14 8 -9 6 -2 hvcurveto
          19 -6 13 -11 -21 vvcurveto
          -24 -15 -17 -31 -16 vhcurveto
          10 -28 rlineto
          47 15 40 32 58 vvcurveto
          47 -28 33 -33 vhcurveto
          endchar
        </CharString>
        <CharString name="Lcaron.sc">
          283 callgsubr
          160 52 -86 callgsubr
          -95 327 rmoveto
          -17 -18 -13 75 callgsubr
          40 32 59 vvcurveto
          47 -29 33 -33 vhcurveto
          endchar
        </CharString>
        <CharString name="Lcommaaccent.sc">
          283 callgsubr
          69 55 -86 callgsubr
          -195 -163 rmoveto
          -21 -21 -13 -24 -14 8 -7 7 -3 166 callgsubr
          -23 -24 -15 -37 -16 vhcurveto
          10 -29 rlineto
          56 15 50 31 164 callgsubr
        </CharString>
        <CharString name="Ldot">
          33 0 34 268 104 216 28 hstem
          128 85 96 103 vstem
          -61 callsubr
          -164 249 rmoveto
          -29 -23 -23 -30 -28 23 -23 29 28 23 23 28 30 -23 23 -28 hvcurveto
          endchar
        </CharString>
        <CharString name="Ldot.sc">
          -45 0 31 174 103 129 434 callgsubr
          69 101 -86 callgsubr
          -126 178 544 callsubr
          22 23 28 29 548 callgsubr
        </CharString>
        <CharString name="Lslash">
          45 0 34 588 28 hstem
          140 85 vstem
          506 165 rmoveto
          -16 -46 -17 -34 -18 -20 rrcurveto
          -26 -22 -32 -5 -58 hhcurveto
          -41 -35 2 11 -19 hvcurveto
          -19 11 -4 25 58 vvcurveto
          195 vlineto
          126 95 rlineto
          47 vlineto
          -126 -95 rlineto
          138 vlineto
          86 8 9 80 6 vhcurveto
          28 -261 -28 vlineto
          80 -6 8 -9 -86 vvcurveto
          -198 vlineto
          -98 -74 rlineto
          -45 vlineto
          98 73 rlineto
          -146 vlineto
          -89 -8 -8 -86 -6 vhcurveto
          -28 455 vlineto
          9 32 21 100 6 29 rrcurveto
          endchar
        </CharString>
        <CharString name="Lslash.sc">
          28 callsubr
        </CharString>
        <CharString name="M">
          -79 callgsubr
          endchar
        </CharString>
        <CharString name="M.sc">
          -77 callgsubr
          endchar
        </CharString>
        <CharString name="M_uni0302">
          -79 callgsubr
          -16 709 rmoveto
          -43 64 callgsubr
          39 17 42 142 callsubr
        </CharString>
        <CharString name="M_uni0302.sc">
          -77 callgsubr
          -200 104 305 callsubr
          51 -30 238 callsubr
        </CharString>
        <CharString name="Mu">
          -79 callgsubr
          endchar
        </CharString>
        <CharString name="N">
          110 callsubr
          418 41 hintmask 10111000
          -83 callsubr
          hintmask 01111000
          9 callsubr
          endchar
        </CharString>
        <CharString name="N.sc">
          76 callgsubr
          298 37 hintmask 10111000
          -93 callsubr
          hintmask 01111000
          -50 callgsubr
          endchar
        </CharString>
        <CharString name="N_uni0302">
          110 callsubr
          418 41 hintmask 10111000
          -83 callsubr
          hintmask 01111000
          9 callsubr
          -211 87 rmoveto
          -43 64 callgsubr
          39 17 42 142 callsubr
        </CharString>
        <CharString name="N_uni0302.sc">
          76 callgsubr
          298 37 hintmask 10111000
          -93 callsubr
          hintmask 01111000
          -50 callgsubr
          -152 103 rmoveto
          -39 50 -34 51 -29 238 callsubr
        </CharString>
        <CharString name="Nacute">
          110 callsubr
          418 41 hintmask 10111000
          -83 callsubr
          hintmask 01111000
          9 callsubr
          -211 134 rmoveto
          -3 14 -27 39 -12 2 126 callsubr
        </CharString>
        <CharString name="Nacute.sc">
          75 0 27 -11 -21 442 27 203 12 418 callsubr
          hintmask 10101100
          -93 callsubr
          hintmask 01111100
          -50 callgsubr
          -133 230 -10 callgsubr
          -35 -39 -62 -28 194 callgsubr
        </CharString>
        <CharString name="Ncaron">
          110 callsubr
          418 41 hintmask 10111000
          -83 callsubr
          hintmask 01111000
          9 callsubr
          -224 184 513 callsubr
          -40 24 -41 117 callgsubr
          43 32 rrcurveto
          endchar
        </CharString>
        <CharString name="Ncaron.sc">
          76 callgsubr
          298 37 hintmask 10111000
          -93 callsubr
          hintmask 01111000
          -50 callgsubr
          -171 248 507 callgsubr
          -35 30 -25 -19 rcurveline
          39 -50 33 415 callgsubr
        </CharString>
        <CharString name="Ncommaaccent.sc">
          76 callgsubr
          168 55 75 37 hintmask 10110100
          -93 callsubr
          hintmask 01111100
          -50 callgsubr
          -261 -456 517 callgsubr
          -7 8 -3 hvcurveto
          24 208 callgsubr
          -23 -23 -15 -38 -16 vhcurveto
          10 -29 109 callsubr
        </CharString>
        <CharString name="Ntilde">
          238 0 28 -16 -21 631 28 47 56 -21 56 hstemhm
          129 41 418 41 hintmask 10100110
          -83 callsubr
          hintmask 01101110
          9 callsubr
          -395 166 309 callgsubr
          hintmask 10110110
          541 callsubr
          21 hvcurveto
          -25 14 rlineto
          -29 -13 -13 -14 -19 hhcurveto
          -18 -16 6 10 -21 hvcurveto
          hintmask 01101110
          284 callsubr
        </CharString>
        <CharString name="Ntilde.sc">
          75 0 27 -11 -21 442 27 85 58 -20 57 418 callsubr
          hintmask 10100110
          -93 callsubr
          hintmask 01101110
          -50 callgsubr
          -315 207 392 callsubr
          -23 hvcurveto
          25 -14 rlineto
          30 14 14 202 callgsubr
          hintmask 10110110
          80 callgsubr
          7 11 -22 hvcurveto
          hintmask 01101110
          15 -29 -13 4 -18 hhcurveto
          endchar
        </CharString>
        <CharString name="Nu">
          110 callsubr
          418 41 hintmask 10111000
          -83 callsubr
          hintmask 01111000
          9 callsubr
          endchar
        </CharString>
        <CharString name="O">
          35 callsubr
          hstem
          524 callgsubr
          vstem
          -102 callgsubr
          endchar
        </CharString>
        <CharString name="O.sc">
          48 callsubr
          hstem
          278 callgsubr
          vstem
          -102 callsubr
          endchar
        </CharString>
        <CharString name="OE">
          468 -11 35 -24 35 282 40 258 35 -24 35 hstemhm
          45 102 387 84 200 30 hintmask 01110111
          921 161 rmoveto
          -15 -40 -15 -33 -19 -21 rrcurveto
          -25 -23 -27 -7 -76 hhcurveto
          -48 -36 0 13 -20 hvcurveto
          -18 12 -6 21 52 vvcurveto
          184 99 vlineto
          85 3 -9 -68 13 hvcurveto
          30 190 -30 hlineto
          -63 -11 -4 -10 -86 hhcurveto
          -99 227 hlineto
          29 3 2 29 vhcurveto
          78 hlineto
          72 26 -7 -20 14 hvcurveto
          13 -19 8 -21 10 -43 30 3 rcurveline
          -5 49 -4 68 -1 25 rrcurveto
          -275 hlineto
          -31 -28 2 3 -34 hvcurveto
          hintmask 10101111
          2 -34 -26 4 -36 hhcurveto
          -214 -1 -168 -134 -209 vvcurveto
          -170 116 -158 245 31 27 3 4 43 vhcurveto
          hintmask 01110111
          3 34 29 1 39 hhcurveto
          306 hlineto
          10 33 20 92 6 32 rrcurveto
          hintmask 10101111
          -417 -47 rmoveto
          -44 -10 -15 -25 -13 vhcurveto
          -9 -20 -30 -5 -32 hhcurveto
          -196 -74 150 156 hvcurveto
          180 1 99 116 169 hhcurveto
          46 34 -9 -12 20 hvcurveto
          14 -8 4 -15 -36 vvcurveto
          endchar
        </CharString>
        <CharString name="OE.sc">
          -47 callsubr
        </CharString>
        <CharString name="Oacute">
          35 callsubr
          hstem
          524 callgsubr
          vstem
          -102 callgsubr
          143 134 156 callgsubr
        </CharString>
        <CharString name="Oacute.sc">
          48 callsubr
          190 12 hstem
          278 callgsubr
          vstem
          -102 callsubr
          140 222 -10 callgsubr
          -35 -40 -62 -27 194 callgsubr
        </CharString>
        <CharString name="Obreve">
          35 callsubr
          36 57 hstem
          44 102 104 30 174 30 117 102 vstem
          -102 callgsubr
          94 190 36 callsubr
          47 39 79 2 hvcurveto
          endchar
        </CharString>
        <CharString name="Obreve.sc">
          48 callsubr
          56 54 hstem
          42 94 39 32 160 31 49 94 vstem
          -102 callsubr
          -109 220 -1 callgsubr
        </CharString>
        <CharString name="Ocircumflex">
          35 callsubr
          hstem
          524 callgsubr
          vstem
          -102 callgsubr
          149 87 287 callsubr
          555 callgsubr
          -38 -41 -45 -34 -43 -33 16 -25 rcurveline
          40 446 callsubr
        </CharString>
        <CharString name="Ocircumflex.sc">
          48 callsubr
          hstem
          278 callgsubr
          vstem
          -102 callsubr
          125 91 -48 callgsubr
        </CharString>
        <CharString name="Odieresis">
          35 callsubr
          36 97 hstem
          44 102 84 95 96 95 85 102 vstem
          -102 callgsubr
          108 170 153 callsubr
        </CharString>
        <CharString name="Odieresis.sc">
          48 callsubr
          69 98 hstemhm
          42 94 20 95 78 95 23 94 hintmask 11010010
          -102 callsubr
          hintmask 11111110
          -81 199 rmoveto
          -25 66 callgsubr
          25 -6 callsubr
          174 hmoveto
          -27 callgsubr
          endchar
        </CharString>
        <CharString name="Ograve">
          35 callsubr
          hstem
          524 callgsubr
          vstem
          -102 callgsubr
          85 89 rmoveto
          -51 34 -54 34 -53 35 301 callsubr
          -8 547 callsubr
        </CharString>
        <CharString name="Ograve.sc">
          48 callsubr
          hstem
          278 callgsubr
          vstem
          -102 callsubr
          52 82 46 callsubr
          59 -57 52 -54 rlinecurve
          endchar
        </CharString>
        <CharString name="Ohorn">
          -58 callgsubr
          endchar
        </CharString>
        <CharString name="Ohungarumlaut">
          35 callsubr
          hstem
          524 callgsubr
          vstem
          -102 callgsubr
          189 168 rmoveto
          -1 11 -13 7 -39 9 -20 -2 rlinecurve
          -15 -35 -18 -46 -17 -42 25 -14 rcurveline
          -45 111 rmoveto
          12 vlineto
          -12 6 -40 9 -20 -2 -14 -33 -18 -46 -19 -43 25 -15 rcurveline
          endchar
        </CharString>
        <CharString name="Ohungarumlaut.sc">
          48 callsubr
          197 9 hstem
          278 callgsubr
          vstem
          -102 callsubr
          35 229 rmoveto
          -3 9 -13 2 -56 -8 -10 -5 rlinecurve
          -6 -19 -26 -82 -16 -45 28 -8 rcurveline
          245 231 callgsubr
          -16 -46 29 -8 rcurveline
          endchar
        </CharString>
        <CharString name="Omacron">
          35 callsubr
          52 52 hstem
          524 callgsubr
          vstem
          -102 callgsubr
          126 88 242 callgsubr
        </CharString>
        <CharString name="Omacron.sc">
          48 callsubr
          89 55 hstem
          278 callgsubr
          vstem
          -102 callsubr
          116 121 283 callsubr
        </CharString>
        <CharString name="Omega">
          134 callgsubr
          hstem
          77 101 409 -83 callgsubr
          endchar
        </CharString>
        <CharString name="Omegatonos">
          134 callgsubr
          hstem
          77 101 409 -83 callgsubr
          -621 686 -12 callgsubr
        </CharString>
        <CharString name="Omicron">
          35 callsubr
          hstem
          524 callgsubr
          vstem
          -102 callgsubr
          endchar
        </CharString>
        <CharString name="Omicrontonos">
          35 callsubr
          hstem
          524 callgsubr
          vstem
          -102 callgsubr
          -290 57 -12 callgsubr
        </CharString>
        <CharString name="Oslash">
          8 callgsubr
          endchar
        </CharString>
        <CharString name="Oslash.sc">
          77 -13 33 424 32 -65 callsubr
          endchar
        </CharString>
        <CharString name="Oslashacute">
          8 callgsubr
          264 669 rmoveto
          -3 14 -28 38 -12 3 -46 -30 -58 114 callgsubr
        </CharString>
        <CharString name="Oslashacute.sc">
          77 -13 33 424 32 191 12 -65 callsubr
          214 604 42 callgsubr
          27 -14 rcurveline
          endchar
        </CharString>
        <CharString name="Otilde">
          35 callsubr
          41 56 -20 55 499 callsubr
          hintmask 11011100
          -102 callgsubr
          -38 168 rmoveto
          -25 -31 -20 -62 -25 hvcurveto
          25 -17 rlineto
          28 14 15 16 18 hhcurveto
          17 11 -7 -7 16 hvcurveto
          hintmask 11101100
          159 callsubr
          -29 -13 -13 -14 373 callsubr
          hintmask 11011100
          284 callsubr
        </CharString>
        <CharString name="Otilde.sc">
          -13 callsubr
        </CharString>
        <CharString name="P">
          -54 callsubr
        </CharString>
        <CharString name="P.sc">
          40 callgsubr
        </CharString>
        <CharString name="Phi">
          249 0 28 57 33 429 32 51 28 hstem
          44 92 200 82 201 91 vstem
          489 658 rmoveto
          -218 -28 hlineto
          57 -5 8 -6 -40 vvcurveto
          -119 -4 -173 -66 -180 vvcurveto
          -182 178 -59 114 -3 vhcurveto
          -47 -8 -6 -62 -4 vhcurveto
          -28 223 28 vlineto
          -63 4 -8 6 47 vvcurveto
          116 3 176 65 184 vvcurveto
          180 -172 58 -120 4 vhcurveto
          40 7 6 64 5 vhcurveto
          -153 -512 rmoveto
          -87 6 -113 56 157 vvcurveto
          153 115 52 85 5 vhcurveto
          82 hmoveto
          85 -4 116 -52 -158 vvcurveto
          -159 -116 -50 -85 -6 vhcurveto
          endchar
        </CharString>
        <CharString name="Pi">
          233 0 28 585 37 -28 28 hstemhm
          126 85 316 85 hintmask 11011000
          703 650 rmoveto
          -667 hlineto
          hintmask 10111000
          -28 vlineto
          82 -7 8 -8 -81 vvcurveto
          -402 vlineto
          -79 -9 -11 -77 -6 vhcurveto
          -28 258 28 vlineto
          -78 6 -9 10 80 vvcurveto
          hintmask 11011000
          457 vlineto
          28 4 4 30 vhcurveto
          249 hlineto
          27 6 -3 -27 hvcurveto
          -459 vlineto
          -79 -8 -11 -85 -6 vhcurveto
          -28 266 28 vlineto
          -80 6 -8 10 80 vvcurveto
          hintmask 10111000
          402 vlineto
          79 8 10 83 7 vhcurveto
          endchar
        </CharString>
        <CharString name="Psi">
          220 0 28 239 35 320 28 -18 27 0 -20 hstemhm
          318 86 hintmask 11001100
          700 659 rmoveto
          -34 -5 -44 -14 -26 -31 -17 -18 -9 -19 -7 -42 -10 -58 rcurveline
          -22 -130 -27 -35 -100 -5 rrcurveto
          hintmask 11100100
          226 vlineto
          76 8 12 72 6 vhcurveto
          28 -246 -28 vlineto
          72 -6 8 -12 -76 vvcurveto
          -226 vlineto
          -86 6 -38 39 -22 124 -11 60 rcurveline
          hintmask 11001100
          -8 42 -8 18 -14 18 -28 34 -44 11 -34 5 rrcurveto
          hintmask 11010100
          -10 -27 47 -21 2 -28 9 -59 rlinecurve
          13 -72 11 -69 19 -36 40 -31 rlinecurve
          43 -34 57 -13 62 -2 rrcurveto
          -145 vlineto
          -76 -8 -13 -77 -5 vhcurveto
          -28 256 28 vlineto
          -77 5 -8 13 76 vvcurveto
          145 vlineto
          67 2 47 14 41 32 41 31 19 32 14 72 14 69 rcurveline
          12 61 6 29 45 23 rrcurveto
          endchar
        </CharString>
        <CharString name="Q">
          240 -159 21 766 37 hstem
          524 callgsubr
          vstem
          720 -138 rmoveto
          -93 42 -89 55 -62 43 rrcurveto
          118 37 109 114 177 vvcurveto
          202 -151 133 -168 -214 -126 -166 -185 -99 43 -86 61 -57 vhcurveto
          63 -61 87 -22 56 -3 122 -85 77 -37 31 -8 30 -8 50 -8 48 1 rrcurveto
          -364 184 rmoveto
          -117 24 -85 123 169 vvcurveto
          191 103 96 111 137 104 -118 -208 -160 -78 -91 -80 -23 vhcurveto
          -9 6 -9 7 -9 6 rrcurveto
          endchar
        </CharString>
        <CharString name="Q.sc">
          32 callsubr
        </CharString>
        <CharString name="R">
          -68 callgsubr
          endchar
        </CharString>
        <CharString name="R.alt">
          122 0 28 255 33 301 33 hstem
          129 83 209 94 vstem
          657 -32 rmoveto
          -25 11 -34 35 -32 39 -67 78 -60 91 -56 87 rrcurveto
          75 33 57 57 87 vvcurveto
          59 -27 46 -40 25 vhcurveto
          24 -37 -49 10 -72 hhcurveto
          -249 -28 hlineto
          79 -7 9 -4 -84 vvcurveto
          -402 vlineto
          -84 -9 -7 -83 -6 vhcurveto
          -28 265 28 vlineto
          -81 6 -9 5 86 vvcurveto
          158 26 vlineto
          45 23 -10 -27 17 hvcurveto
          32 -48 50 -76 37 -53 64 -87 38 -28 68 -8 rrcurveto
          -2 14 14 -1 9 hhcurveto
          -437 373 rmoveto
          242 vlineto
          27 4 12 6 8 vhcurveto
          8 8 18 4 27 hhcurveto
          76 70 -40 -108 -56 -17 -40 -35 -28 hvcurveto
          -21 -26 -34 -8 -51 hhcurveto
          endchar
        </CharString>
        <CharString name="R.sc">
          -80 callsubr
          endchar
        </CharString>
        <CharString name="R_p">
          421 -226 27 187 48 -43 32 -25 26 248 32 64 59 163 32 hstemhm
          121 79 171 88 80 78 188 80 hintmask 1001111111100000
          617 373 rmoveto
          65 vlineto
          -43 -17 -49 -17 -40 -8 rrcurveto
          -24 vlineto
          54 -5 0 -4 -56 vvcurveto
          hintmask 1010111111100000
          -282 vlineto
          -18 5 -15 12 -20 22 -17 22 -22 27 -29 51 -25 44 -34 65 -14 28 70 33 45 56 -1 79 rrcurveto
          55 -22 44 -35 24 vhcurveto
          23 -33 -47 9 -58 hhcurveto
          -216 -26 hlineto
          67 -6 6 -14 -85 vvcurveto
          -364 vlineto
          hintmask 1001111111100000
          -84 -6 -12 -71 -7 vhcurveto
          -26 232 26 vlineto
          -69 7 -7 14 82 vvcurveto
          145 35 vlineto
          26 12 -9 -28 15 hvcurveto
          hintmask 1010111111100000
          23 -45 30 -66 28 -45 34 -54 36 -27 82 -6 18 -2 rcurveline
          -121 vlineto
          -54 -3 -10 -56 -6 vhcurveto
          -27 210 27 vlineto
          -72 6 -1 10 55 vvcurveto
          hintmask 1100111111100000
          132 vlineto
          12 -8 16 -7 23 -1 rrcurveto
          118 23 99 92 147 vvcurveto
          84 -52 95 -95 -9 -12 -2 -4 -8 vhcurveto
          -509 -117 rmoveto
          256 vlineto
          27 5 3 44 64 58 -37 -103 -51 -9 -38 -36 -32 vhcurveto
          -20 -22 -28 -5 -33 hhcurveto
          374 33 rmoveto
          20 24 25 11 26 hhcurveto
          64 49 -54 -116 -118 -58 -46 -50 -36 -27 13 22 -17 hvcurveto
          endchar
        </CharString>
        <CharString name="Racute">
          -68 callgsubr
          173 439 rmoveto
          -3 14 -28 39 -11 2 126 callsubr
        </CharString>
        <CharString name="Racute.sc">
          23 -6 23 -17 27 173 31 202 31 203 12 449 callsubr
          153 88 hintmask 10110110
          -71 callsubr
          hintmask 01110110
          -249 vlineto
          -70 -6 -5 -66 -5 vhcurveto
          -27 223 395 callsubr
          6 69 vvcurveto
          93 23 vlineto
          38 11 -7 -30 18 hvcurveto
          hintmask 10111110
          -62 callgsubr
          143 436 42 callgsubr
          28 -14 rcurveline
          endchar
        </CharString>
        <CharString name="Rcaron">
          -68 callgsubr
          146 504 77 callgsubr
        </CharString>
        <CharString name="Rcaron.sc">
          -80 callsubr
          103 454 4 callgsubr
          28 hlineto
          30 51 35 49 37 50 rrcurveto
          endchar
        </CharString>
        <CharString name="Rcommaaccent.sc">
          -41 callsubr
        </CharString>
        <CharString name="Rho">
          -54 callsubr
        </CharString>
        <CharString name="Rho_uni0313">
          58 0 28 234 40 316 32 -28 28 hstemhm
          -50 54 124 27 callgsubr
          -302 208 rmoveto
          30 7 64 15 callgsubr
          -24 -11 vhcurveto
          endchar
        </CharString>
        <CharString name="S">
          -31 -15 36 610 34 hstem
          60 78 217 -81 callgsubr
          endchar
        </CharString>
        <CharString name="S.sc">
          -97 359 callgsubr
          hstem
          61 73 156 77 vstem
          -93 callgsubr
          endchar
        </CharString>
        <CharString name="Sacute">
          -31 -15 36 610 34 hstem
          60 78 217 -81 callgsubr
          1 266 rmoveto
          -3 14 -28 39 -11 2 126 callsubr
        </CharString>
        <CharString name="Sacute.sc">
          -97 359 callgsubr
          190 12 hstem
          61 73 156 77 vstem
          -93 callgsubr
          22 330 rmoveto
          -4 12 -13 3 -59 -7 142 callgsubr
        </CharString>
        <CharString name="Scaron">
          -31 -15 36 610 34 hstem
          60 78 217 -81 callgsubr
          -11 332 513 callsubr
          -39 24 -42 187 callsubr
          -42 rrcurveto
          22 hlineto
          40 42 43 33 43 33 rrcurveto
          endchar
        </CharString>
        <CharString name="Scaron.sc">
          -97 359 callgsubr
          hstem
          61 73 156 77 vstem
          -93 callgsubr
          -17 348 41 callgsubr
        </CharString>
        <CharString name="Scedilla.dup">
          -32 callsubr
        </CharString>
        <CharString name="Scedilla.sc">
          -36 callsubr
        </CharString>
        <CharString name="Scircumflex">
          -31 -15 36 610 34 hstem
          60 78 217 -81 callgsubr
          6 217 405 callsubr
          17 388 callgsubr
        </CharString>
        <CharString name="Scircumflex.sc">
          -97 359 callgsubr
          hstem
          61 73 156 77 vstem
          -93 callgsubr
          5 199 rmoveto
          -38 51 -34 50 -30 49 rrcurveto
          -27 hlineto
          -31 -51 -35 -48 -37 -51 401 callsubr
          endchar
        </CharString>
        <CharString name="Scommaaccent.sc">
          -97 359 callgsubr
          hstemhm
          61 73 91 55 10 77 hintmask 11101000
          -93 callgsubr
          hintmask 11111000
          -110 -383 rmoveto
          -20 -22 -12 -24 -15 410 callsubr
          -15 vhcurveto
          10 -29 141 callsubr
        </CharString>
        <CharString name="Sigma">
          93 0 71 543 36 hstem
          33 537 vstem
          570 168 rmoveto
          -29 7 rlineto
          -86 -31 -29 -18 -66 hhcurveto
          -280 hlineto
          243 287 -211 256 rlineto
          181 hlineto
          74 25 -6 -20 16 hvcurveto
          15 -17 10 -25 12 -46 29 4 rcurveline
          -5 55 -5 74 -1 17 rrcurveto
          -472 -22 hlineto
          249 -304 -262 -302 rlineto
          -22 498 vlineto
          endchar
        </CharString>
        <CharString name="T">
          299 callsubr
          hstem
          40 20 207 85 vstem
          -72 callsubr
          endchar
        </CharString>
        <CharString name="T.sc">
          5 0 28 404 32 hstem
          49 21 144 82 vstem
          -80 callgsubr
          endchar
        </CharString>
        <CharString name="T_h">
          390 callgsubr
          hstem
          40 19 215 85 266 79 202 79 vstem
          -65 callgsubr
          endchar
        </CharString>
        <CharString name="Tau">
          299 callsubr
          hstem
          40 20 207 85 vstem
          -72 callsubr
          endchar
        </CharString>
</ttFont>
